<svg width="533" height="532" viewBox="0 0 533 532" fill="none" xmlns="http://www.w3.org/2000/svg">
<circle cx="266.685" cy="265" r="264" fill="white" stroke="black" stroke-width="2"/>
<path d="M271.444 347.278C319.133 347.278 357.793 308.619 357.793 260.929C357.793 213.24 319.133 174.58 271.444 174.58C223.755 174.58 185.095 213.24 185.095 260.929C185.095 308.619 223.755 347.278 271.444 347.278Z" fill="#A0616A"/>
<path d="M199.973 366.614L217.973 320.614L310.973 306.614L320.965 408.44L226.965 410.44L199.973 366.614Z" fill="#A0616A"/>
<path d="M358.629 276.861C357.509 281.351 355.243 292.041 351.706 292.094C348.815 292.136 346.049 245.759 348.936 238.088C352.252 229.275 343.537 218.127 336.972 212.405C325.168 202.115 298.965 224.209 272.321 214.201C271.614 213.936 271.755 213.966 263.341 210.609C237.452 200.279 236.091 199.981 234.608 199.834C222.057 198.592 206.741 208.862 200.486 221.384C193.984 234.401 199.417 245.565 193.303 277.056C192.59 280.727 191.471 285.958 189.711 286.035C186.493 286.176 183.35 268.987 182.527 264.485C179.08 245.623 175.755 227.438 182.527 207.017C183.266 204.79 187.819 196.523 196.894 180.079C209.969 156.391 216.545 144.502 218.445 142.366C232.073 127.04 256.881 113.059 277.708 119.02C288.235 122.033 286.348 126.877 299.259 131.591C322.267 139.991 342.264 129.718 345.951 136.978C347.905 140.824 342.439 143.995 342.36 151.345C342.224 163.957 358.174 167.601 367.502 180.079C372.516 186.787 381.099 186.859 358.629 276.861Z" fill="#2F2E41"/>
<path d="M465.605 442.61C462.125 446.521 458.515 450.351 454.775 454.091C404.535 504.33 337.735 532 266.685 532C205.275 532 147.045 511.33 99.9351 473.28C99.905 473.261 99.885 473.24 99.8552 473.21C93.6052 468.171 87.5552 462.811 81.7151 457.15C81.8249 456.271 81.9451 455.4 82.075 454.54C82.895 448.74 83.8052 443.21 84.825 438.12C93.1751 396.4 203.045 352.601 205.905 351.46C205.945 351.45 205.965 351.44 205.965 351.44C205.965 351.44 220.105 403.561 280.695 402.891C321.965 402.44 313.965 351.44 313.965 351.44C313.965 351.44 314.465 351.54 315.405 351.74C327.325 354.271 410.085 372.45 442.735 397.261C452.685 404.82 459.825 420.921 464.955 440.12C465.175 440.94 465.385 441.78 465.605 442.61Z" fill="#6C63FF"/>
</svg>
