<svg width="635" height="453" viewBox="0 0 635 453" fill="none" xmlns="http://www.w3.org/2000/svg">
<g clip-path="url(#clip0_202_6)">
<path opacity="0.1" d="M186.924 19.8738H132.546C129.41 19.8738 126.867 22.4165 126.867 25.5531V34.0682C126.867 37.2048 129.41 39.7475 132.546 39.7475H186.924C190.061 39.7475 192.604 37.2048 192.604 34.0682V25.5531C192.604 22.4165 190.061 19.8738 186.924 19.8738Z" fill="#6C63FF"/>
<path opacity="0.1" d="M255.719 39.7476H201.341C198.205 39.7476 195.662 42.2903 195.662 45.4269V53.942C195.662 57.0786 198.205 59.6213 201.341 59.6213H255.719C258.856 59.6213 261.398 57.0786 261.398 53.942V45.4269C261.398 42.2903 258.856 39.7476 255.719 39.7476Z" fill="#6C63FF"/>
<path opacity="0.1" d="M255.719 9.93689H201.341C198.205 9.93689 195.662 12.4796 195.662 15.6162V24.1313C195.662 27.2679 198.205 29.8107 201.341 29.8107H255.719C258.856 29.8107 261.398 27.2679 261.398 24.1313V15.6162C261.398 12.4796 258.856 9.93689 255.719 9.93689Z" fill="#6C63FF"/>
<path opacity="0.1" d="M332.156 0H277.778C274.641 0 272.099 2.54271 272.099 5.67931V14.1945C272.099 17.3311 274.641 19.8738 277.778 19.8738H332.156C335.292 19.8738 337.835 17.3311 337.835 14.1945V5.67931C337.835 2.54271 335.292 0 332.156 0Z" fill="#6C63FF"/>
<path opacity="0.1" d="M400.951 19.8738H346.573C343.436 19.8738 340.894 22.4165 340.894 25.5531V34.0682C340.894 37.2048 343.436 39.7475 346.573 39.7475H400.951C404.087 39.7475 406.63 37.2048 406.63 34.0682V25.5531C406.63 22.4165 404.087 19.8738 400.951 19.8738Z" fill="#6C63FF"/>
<path opacity="0.1" d="M469.744 39.7476H415.366C412.229 39.7476 409.687 42.2903 409.687 45.4269V53.942C409.687 57.0786 412.229 59.6213 415.366 59.6213H469.744C472.88 59.6213 475.423 57.0786 475.423 53.942V45.4269C475.423 42.2903 472.88 39.7476 469.744 39.7476Z" fill="#6C63FF"/>
<path opacity="0.1" d="M469.744 9.93689H415.366C412.229 9.93689 409.687 12.4796 409.687 15.6162V24.1313C409.687 27.2679 412.229 29.8107 415.366 29.8107H469.744C472.88 29.8107 475.423 27.2679 475.423 24.1313V15.6162C475.423 12.4796 472.88 9.93689 469.744 9.93689Z" fill="#6C63FF"/>
<path opacity="0.1" d="M118.13 254.537H63.7526C60.616 254.537 58.0732 257.08 58.0732 260.216V268.732C58.0732 271.868 60.616 274.411 63.7526 274.411H118.13C121.267 274.411 123.81 271.868 123.81 268.732V260.216C123.81 257.08 121.267 254.537 118.13 254.537Z" fill="#6C63FF"/>
<path opacity="0.1" d="M332.156 254.537H277.778C274.641 254.537 272.099 257.08 272.099 260.216V268.732C272.099 271.868 274.641 274.411 277.778 274.411H332.156C335.292 274.411 337.835 271.868 337.835 268.732V260.216C337.835 257.08 335.292 254.537 332.156 254.537Z" fill="#6C63FF"/>
<path opacity="0.1" d="M469.744 294.285H415.366C412.229 294.285 409.687 296.827 409.687 299.964V308.479C409.687 311.616 412.229 314.158 415.366 314.158H469.744C472.88 314.158 475.423 311.616 475.423 308.479V299.964C475.423 296.827 472.88 294.285 469.744 294.285Z" fill="#6C63FF"/>
<path d="M552.464 6.87939H6.25627C3.21254 6.87939 0.745117 9.34682 0.745117 12.3905V280.365C0.745117 283.409 3.21254 285.877 6.25627 285.877H552.464C555.508 285.877 557.975 283.409 557.975 280.365V12.3905C557.975 9.34682 555.508 6.87939 552.464 6.87939Z" fill="#3F3D56"/>
<path d="M546.323 12.9355H13.6195C10.5758 12.9355 8.1084 15.403 8.1084 18.4467V274.309C8.1084 277.353 10.5758 279.82 13.6195 279.82H546.323C549.367 279.82 551.834 277.353 551.834 274.309V18.4467C551.834 15.403 549.367 12.9355 546.323 12.9355Z" fill="white"/>
<path opacity="0.1" d="M0.746094 269.06H557.976V280.365C557.976 281.827 557.395 283.229 556.362 284.262C555.328 285.296 553.927 285.877 552.465 285.877H6.25724C4.79559 285.877 3.39381 285.296 2.36027 284.262C1.32673 283.229 0.746094 281.827 0.746094 280.365V269.06Z" fill="black"/>
<path d="M94.382 248.422H56.9275C55.8722 248.422 55.0166 249.278 55.0166 250.333V267.149C55.0166 268.205 55.8722 269.06 56.9275 269.06H94.382C95.4373 269.06 96.2929 268.205 96.2929 267.149V250.333C96.2929 249.278 95.4373 248.422 94.382 248.422Z" fill="#090814"/>
<path d="M134.511 266.003H109.287C108.442 266.003 107.758 266.687 107.758 267.532C107.758 268.376 108.442 269.06 109.287 269.06H134.511C135.355 269.06 136.04 268.376 136.04 267.532C136.04 266.687 135.355 266.003 134.511 266.003Z" fill="#090814"/>
<path d="M82.6488 61.4405C102.821 65.163 123.398 61.4405 143.485 58.9181L204.536 51.2743C207.005 50.9609 210.598 49.4857 212.05 52.505C212.868 54.1943 212.318 57.8556 212.379 59.7971C212.539 65.1478 212.524 70.4984 212.379 75.849C212.104 86.0764 211.354 96.2808 210.399 106.462C208.541 126.39 205.912 146.21 204.597 166.214C203.925 176.395 203.588 186.607 203.886 196.789C203.955 199.219 204.055 201.65 204.2 204.073C204.36 206.787 205.576 210.815 202.618 212.626C200.928 213.666 197.603 213.612 195.669 213.918C192.612 214.4 189.554 214.782 186.436 215.095C165.882 217.152 145.06 216.295 124.43 216.173L62.133 215.852L46.9372 215.768C45.5613 215.768 40.6005 216.594 39.752 214.958C39.3928 214.262 40.3483 211.006 40.5164 210.135C40.7508 208.698 41.0056 207.263 41.2808 205.831C43.0541 195.78 45.1485 185.789 47.2582 175.806C51.791 154.404 56.4307 132.894 58.2958 111.033C59.2207 100.064 58.6092 88.9963 59.7405 78.0504C60.2679 72.9673 60.8947 61.624 67.6594 61.173C73.3922 60.7908 79.2932 61.173 85.0413 61.173C85.3454 61.173 85.637 61.0522 85.8521 60.8372C86.0671 60.6222 86.1879 60.3305 86.1879 60.0264C86.1879 59.7224 86.0671 59.4307 85.8521 59.2157C85.637 59.0007 85.3454 58.8799 85.0413 58.8799C79.6142 58.8799 74.1795 58.7347 68.7525 58.8417C65.1446 58.9105 62.6375 59.7666 60.9176 63.0839C56.5225 71.5991 56.9734 82.9577 56.8358 92.2525C56.5072 114.504 53.0904 136.281 48.6417 158.042C46.4021 168.996 43.9867 179.911 41.7624 190.872C40.7152 196.108 39.7138 201.36 38.7966 206.626C38.3685 209.133 36.2053 214.66 38.1086 216.96C40.0119 219.261 45.867 218.023 48.4889 218.038L66.7269 218.145L101.674 218.344C124.254 218.474 146.91 219.108 169.482 218.443C180.26 218.122 191.649 217.679 202.144 215.103C205.27 214.339 206.776 212.902 206.898 209.569C207.082 204.402 206.241 199.074 206.134 193.884C205.369 149.474 215.803 105.683 214.733 61.2571C214.664 58.2378 215.803 50.6246 212.501 48.7978C211.018 47.9722 209.092 48.4232 207.533 48.6067C204.551 48.9506 201.578 49.371 198.597 49.7226L159.881 54.5535C147.506 56.0823 135.139 57.7333 122.74 59.1398C109.616 60.6685 96.3617 61.5781 83.2833 59.1398C81.8386 58.8722 81.2194 61.0813 82.6717 61.3488L82.6488 61.4405Z" fill="#6C63FF"/>
<path d="M58.3106 88.4612L211.048 80.9704C212.523 80.8939 212.531 78.6008 211.048 78.6772L58.3106 86.1681C56.843 86.2369 56.8354 88.53 58.3106 88.4612Z" fill="#6C63FF"/>
<path d="M105.366 69.5582C104.939 70.0109 104.629 70.561 104.463 71.1609C104.297 71.7607 104.28 72.392 104.413 72.9999C104.546 73.6079 104.826 74.1741 105.228 74.6493C105.63 75.1245 106.142 75.4944 106.719 75.7267C108.775 76.6669 111.191 75.8796 113.232 75.3675C116.289 74.6031 119.347 73.9228 122.488 73.3648C129.326 72.1543 136.252 71.51 143.195 71.4386C146.36 71.4003 149.501 71.5456 152.666 71.6832C154.959 71.7749 157.428 71.9583 159.37 70.5366C161.586 68.9161 162.305 65.7516 160.134 63.7795C157.076 60.9895 150.487 62.61 146.956 62.9005C134.142 63.965 121.411 65.8647 108.844 68.5875C107.407 68.8932 108.011 71.1099 109.456 70.7965C117.747 69.0078 126.101 67.5708 134.52 66.4854C138.658 65.9758 142.803 65.5452 146.956 65.1936C148.913 65.0331 150.87 64.8879 152.826 64.7732C153.591 64.7273 154.401 64.6433 155.181 64.6662C157.604 64.7197 157.887 64.284 156.434 67.2116C155.143 69.8028 155.555 69.5047 153.316 69.4206C152.368 69.4206 151.42 69.3136 150.472 69.2677C148.531 69.1862 146.589 69.1429 144.648 69.1378C140.515 69.1378 136.392 69.3365 132.28 69.734C128.794 70.0703 125.317 70.5442 121.869 71.1557C119.714 71.5379 117.573 71.9813 115.441 72.4705C114.501 72.6921 113.553 72.9214 112.613 73.1584C112.162 73.2807 111.703 73.3877 111.252 73.5024C109.581 74.0833 108.156 73.3189 106.979 71.2093C108.003 70.1468 106.391 68.5187 105.359 69.5888L105.366 69.5582Z" fill="#6C63FF"/>
<path d="M133.053 102.182C121.992 101.754 110.045 104.742 102.76 113.647C97.0582 120.611 93.8096 132.558 99.8482 140.401C106.338 148.809 120.57 147.326 129.154 143.741C138.235 139.919 148.172 132.038 150.901 122.178C154.302 109.864 143.257 100.554 131.753 100.416C131.449 100.416 131.157 100.537 130.942 100.752C130.727 100.967 130.607 101.259 130.607 101.563C130.607 101.867 130.727 102.158 130.942 102.373C131.157 102.588 131.449 102.709 131.753 102.709C138.312 102.786 144.748 105.599 147.805 111.706C151.008 118.142 148.248 124.899 143.983 130.051C137.15 138.253 126.464 144.436 115.579 144.261C109.044 144.161 101.82 141.922 99.7947 135.027C98.1283 129.439 99.3972 123.332 102.302 118.379C108.585 107.678 121.373 104.055 133.099 104.513C134.574 104.567 134.574 102.274 133.099 102.22L133.053 102.182Z" fill="#6C63FF"/>
<path d="M122.068 119.166C121.596 118.991 121.088 118.939 120.591 119.013C120.093 119.088 119.623 119.287 119.223 119.592C118.823 119.897 118.507 120.298 118.304 120.759C118.101 121.219 118.018 121.723 118.062 122.224C118.292 125.205 121.578 126.046 124.047 125.87C126.18 125.686 128.672 124.899 127.923 122.231C127.785 121.759 127.547 121.322 127.225 120.95C126.903 120.578 126.505 120.28 126.058 120.076C125.374 119.804 124.632 119.712 123.902 119.808C123.619 119.808 121.028 120.756 122.129 119.617L120.325 119.38C120.525 119.578 120.678 119.818 120.774 120.082C120.869 120.347 120.904 120.629 120.875 120.909C120.879 121.109 120.934 121.304 121.036 121.476C121.137 121.648 121.282 121.791 121.455 121.89C121.629 121.99 121.825 122.042 122.025 122.043C122.224 122.044 122.421 121.993 122.595 121.895C122.857 121.785 123.145 121.751 123.426 121.795C123.707 121.84 123.969 121.962 124.184 122.148C124.4 122.334 124.559 122.576 124.644 122.847C124.729 123.119 124.737 123.408 124.667 123.684C124.605 123.948 124.639 124.226 124.762 124.469C124.886 124.711 125.09 124.902 125.341 125.008C125.591 125.114 125.871 125.128 126.131 125.048C126.39 124.968 126.614 124.799 126.761 124.57C127.525 123.194 128.45 120.458 127.304 119.021C126.539 118.05 125.064 118.341 124.147 118.906C123.581 119.307 123.053 119.76 122.572 120.259C121.647 121.077 121.043 121.459 121.387 119.892C121.961 117.041 124.682 114.771 127.166 113.632L125.484 112.34C124.603 115.653 123.026 118.741 120.86 121.398L122.817 122.208C122.761 121.159 123.031 120.118 123.589 119.227C124.147 118.337 124.967 117.64 125.935 117.232H124.812L125.408 118.211C125.186 119.655 127.395 120.275 127.617 118.815C127.907 116.927 126.715 114.473 124.506 115.398C121.869 116.499 120.501 119.518 120.554 122.208C120.554 123.126 121.854 123.837 122.519 123.026C124.95 120.073 126.724 116.636 127.724 112.944C127.777 112.725 127.765 112.495 127.69 112.283C127.615 112.07 127.48 111.884 127.301 111.747C127.122 111.61 126.907 111.529 126.682 111.512C126.457 111.495 126.232 111.544 126.035 111.652C123.745 112.687 121.81 114.373 120.47 116.499C119.538 118.027 118.368 120.412 119.316 122.17C119.471 122.451 119.681 122.699 119.933 122.899C120.184 123.099 120.473 123.247 120.782 123.334C121.091 123.421 121.415 123.447 121.734 123.408C122.053 123.37 122.361 123.269 122.641 123.11C123.348 122.691 123.993 122.177 124.56 121.582C124.842 121.329 125.156 120.894 125.53 120.817C125.867 120.588 125.851 120.718 125.477 121.222C125.472 122.014 125.241 122.789 124.812 123.454L126.906 124.333C127.095 123.62 127.073 122.867 126.843 122.165C126.613 121.464 126.184 120.844 125.609 120.381C125.035 119.917 124.338 119.631 123.604 119.555C122.869 119.479 122.129 119.617 121.471 119.953L123.199 120.947C123.235 119.974 122.929 119.02 122.335 118.249C122.245 118.1 122.123 117.974 121.977 117.879C121.831 117.784 121.666 117.723 121.494 117.7C121.321 117.677 121.146 117.693 120.981 117.747C120.816 117.801 120.665 117.892 120.539 118.012C119.377 119.227 119.155 121.329 120.615 122.453C121.708 123.286 122.243 122.453 123.444 122.262C127.518 121.735 125.14 123.569 123.703 123.63C123.061 123.699 122.411 123.652 121.785 123.493C120.19 122.952 120.09 122.257 121.487 121.406C122.855 121.964 123.444 119.747 122.098 119.197L122.068 119.166Z" fill="#6C63FF"/>
<path d="M120.225 123.355C121.166 126.412 117.283 127.421 115.44 128.476C114.148 129.201 113.02 130.188 112.131 131.373C110.204 133.957 109.486 137.244 108.851 140.339C108.561 141.784 110.77 142.396 111.068 140.951C111.418 138.676 112.068 136.458 113.002 134.354C114.378 131.618 116.35 130.701 118.918 129.294C121.487 127.888 123.344 125.709 122.434 122.743C122.006 121.337 119.79 121.941 120.225 123.355Z" fill="#6C63FF"/>
<path d="M124.048 121.819C123.501 121.894 123.002 122.171 122.648 122.595C122.295 123.019 122.113 123.56 122.137 124.112C122.137 125.021 122.741 125.602 123.153 126.328C124.133 127.814 124.881 129.441 125.37 131.152C125.737 132.795 126.096 135.738 125.24 137.267C123.658 140.102 120.799 139.56 118.361 139.56C116.068 139.56 114.294 140.324 114.371 137.129C114.417 135.333 115.67 133.514 116.664 132.099L114.57 131.824C115.011 134.158 115.244 136.527 115.265 138.902C115.265 139.965 116.893 140.553 117.398 139.476C118.627 136.891 119.602 134.192 120.31 131.419L118.055 131.113L118.453 136.923C118.459 137.171 118.545 137.41 118.699 137.605C118.852 137.8 119.064 137.94 119.303 138.006C119.542 138.071 119.796 138.057 120.027 137.967C120.258 137.876 120.454 137.714 120.585 137.504C120.853 137.208 121.049 136.855 121.158 136.472C121.235 136.112 120.532 133.689 120.249 134.553L122.496 134.859L122.657 129.34L120.363 129.646C120.848 131.202 120.994 132.844 120.792 134.461C120.646 135.738 122.794 136.028 123.085 134.767L124.522 127.353L122.427 127.62C122.925 128.646 123.062 129.809 122.817 130.922C122.649 132.39 124.942 132.375 125.11 130.922C125.305 129.4 125.061 127.854 124.407 126.466C124.291 126.275 124.121 126.121 123.92 126.024C123.718 125.928 123.492 125.892 123.27 125.921C123.048 125.95 122.839 126.043 122.669 126.189C122.499 126.334 122.375 126.526 122.313 126.741L120.868 134.156L123.123 134.461C123.352 132.639 123.177 130.789 122.611 129.042C122.534 128.779 122.366 128.552 122.136 128.402C121.907 128.252 121.631 128.19 121.359 128.226C121.087 128.262 120.837 128.394 120.655 128.598C120.472 128.803 120.369 129.066 120.363 129.34L120.203 134.859C120.209 135.133 120.313 135.396 120.496 135.601C120.678 135.805 120.928 135.938 121.2 135.975C121.472 136.012 121.748 135.95 121.978 135.802C122.209 135.653 122.379 135.427 122.458 135.165L122.58 134.79C122.633 134.595 122.634 134.389 122.583 134.193C122.532 133.998 122.431 133.819 122.29 133.674C119.913 131.09 119.431 135.203 118.605 136.342L120.746 136.923L120.348 131.113C120.264 129.875 118.43 129.493 118.093 130.808C117.447 133.393 116.551 135.91 115.418 138.321L117.558 138.902C117.534 136.321 117.278 133.748 116.794 131.213C116.595 130.158 115.212 130.204 114.699 130.938C113.171 133.139 110.526 137.947 112.567 140.584C114.348 142.877 119.951 141.99 122.343 141.845C126.119 141.631 127.487 139.239 127.9 135.677C128.097 133.971 128.001 132.244 127.617 130.571C127.411 129.669 125.324 123.951 124.698 124.066C126.15 123.798 125.531 121.582 124.086 121.849L124.048 121.819Z" fill="#6C63FF"/>
<path d="M119.606 126.97L113.345 135.233L115.325 136.388L119.911 129.753L117.817 128.866L115.532 137.588C115.47 137.852 115.504 138.13 115.627 138.373C115.751 138.615 115.955 138.806 116.206 138.912C116.456 139.018 116.736 139.032 116.996 138.952C117.255 138.872 117.479 138.703 117.626 138.474C118.666 136.751 119.834 135.108 121.119 133.559L119.208 132.443C118.695 134.418 117.706 136.237 116.326 137.741L118.245 138.856C118.362 137.8 118.644 136.769 119.078 135.799C119.667 134.477 117.802 133.307 117.098 134.637C116.452 135.849 115.713 137.009 114.889 138.107L116.984 138.383L117.45 136.204L115.356 135.929L115.692 137.84C115.747 138.032 115.851 138.207 115.994 138.347C116.138 138.486 116.314 138.587 116.508 138.638C116.701 138.688 116.905 138.688 117.098 138.637C117.291 138.585 117.468 138.485 117.611 138.344C119.549 136.338 121.104 133.994 122.197 131.427H120.225C120.743 132.383 121.107 133.415 121.303 134.484C121.578 135.86 123.405 135.348 123.55 134.179C123.878 131.618 124.047 129.04 124.054 126.458H121.761V131.266C121.761 132.512 123.802 132.879 124.016 131.572C124.167 130.412 124.55 129.295 125.14 128.285H123.129C123.614 129.067 123.878 129.965 123.894 130.884C123.894 131.188 124.015 131.48 124.23 131.695C124.445 131.91 124.736 132.031 125.04 132.031C125.344 132.031 125.636 131.91 125.851 131.695C126.066 131.48 126.187 131.188 126.187 130.884L126.477 129.355H124.268C124.49 130.708 125.331 138.329 122.342 137.435C121.838 137.312 121.692 137.343 121.906 137.519L122.587 136.067L124.184 132.68L122.044 132.099C122.182 133.674 122.327 135.921 121.379 137.267C120.615 138.36 118.26 138.795 117.06 138.153C116.268 137.588 115.591 136.878 115.065 136.059L113.498 137.588C114.767 138.513 116.823 140.783 118.459 140.913C119.705 141.012 120.752 139.98 121.57 139.155C122.825 137.858 123.803 136.32 124.445 134.635C125.088 132.949 125.381 131.15 125.308 129.348C125.308 129.044 125.187 128.752 124.972 128.537C124.757 128.322 124.465 128.201 124.161 128.201C123.857 128.201 123.566 128.322 123.351 128.537C123.136 128.752 123.015 129.044 123.015 129.348V131.962C123.015 132.266 123.136 132.558 123.351 132.773C123.566 132.988 123.857 133.108 124.161 133.108C124.465 133.108 124.757 132.988 124.972 132.773C125.187 132.558 125.308 132.266 125.308 131.962V125.549C125.308 125.245 125.187 124.953 124.972 124.738C124.757 124.523 124.465 124.402 124.161 124.402C123.857 124.402 123.566 124.523 123.351 124.738C123.136 124.953 123.015 125.245 123.015 125.549C123.011 127.086 122.878 128.62 122.617 130.135L124.872 130.441C124.693 128.614 124.608 126.78 124.62 124.945C124.616 124.67 124.514 124.406 124.332 124.2C124.15 123.994 123.9 123.861 123.628 123.824C123.356 123.787 123.079 123.849 122.849 123.998C122.619 124.148 122.45 124.375 122.373 124.639C122.029 126.099 121.608 127.536 121.203 128.965L123.298 128.69L123.137 128.079C123.03 126.619 120.737 126.611 120.844 128.079C120.869 128.698 121.031 129.303 121.318 129.852C121.761 130.785 123.145 130.456 123.412 129.577C123.848 128.14 124.238 126.703 124.582 125.251L122.327 124.945C122.315 126.78 122.4 128.614 122.579 130.441C122.694 131.618 124.589 132.122 124.826 130.746C125.132 129.02 125.293 127.271 125.308 125.518H123.015V131.931H125.308V129.317H123.015C123.15 132.201 122.148 135.022 120.225 137.175C119.927 137.514 119.605 137.83 119.262 138.123C118.719 138.642 118.222 138.566 117.786 137.886C116.701 137.435 115.577 136.273 114.63 135.593C113.682 134.912 112.382 136.258 113.055 137.16C114.813 139.499 117.435 142.105 120.699 140.981C124.131 139.766 124.597 135.119 124.337 132.061C124.253 131.045 122.732 130.357 122.205 131.488C121.44 133.101 120.676 134.706 119.911 136.326C119.515 136.93 119.279 137.624 119.223 138.344C119.476 140.064 121.562 139.781 122.847 139.682C127.823 139.307 127.035 132.252 126.462 128.706C126.271 127.528 124.559 127.712 124.253 128.706C124.01 129.404 123.884 130.137 123.879 130.876H126.172C126.089 129.562 125.721 128.281 125.094 127.123C124.991 126.952 124.846 126.811 124.673 126.713C124.499 126.614 124.303 126.563 124.104 126.563C123.905 126.563 123.709 126.614 123.535 126.713C123.362 126.811 123.217 126.952 123.114 127.123C122.431 128.303 121.969 129.599 121.754 130.945L124.047 131.251V126.443C124.047 126.139 123.926 125.847 123.711 125.632C123.496 125.417 123.204 125.296 122.9 125.296C122.596 125.296 122.304 125.417 122.089 125.632C121.874 125.847 121.754 126.139 121.754 126.443C121.746 129.024 121.577 131.603 121.249 134.163L123.504 133.857C123.245 132.608 122.804 131.403 122.197 130.28C122.094 130.109 121.949 129.968 121.776 129.869C121.602 129.771 121.406 129.72 121.207 129.72C121.008 129.72 120.812 129.771 120.638 129.869C120.465 129.968 120.32 130.109 120.217 130.28C119.22 132.674 117.787 134.862 115.99 136.732L117.909 137.236L117.572 135.325C117.397 134.308 115.96 134.278 115.478 135.05C115.098 135.625 114.84 136.271 114.721 136.95C114.601 137.628 114.622 138.324 114.782 138.994C114.974 140.079 116.349 139.965 116.877 139.269C117.701 138.173 118.439 137.016 119.086 135.807L117.106 134.645C116.578 135.787 116.217 137 116.036 138.245C115.898 139.254 117.098 140.309 117.955 139.361C119.598 137.563 120.788 135.398 121.425 133.047C121.708 132.008 120.271 131.022 119.506 131.931C118.1 133.616 116.822 135.405 115.684 137.282L117.779 138.169L120.11 129.478C120.172 129.213 120.138 128.935 120.014 128.693C119.891 128.45 119.686 128.259 119.436 128.153C119.186 128.047 118.906 128.033 118.646 128.113C118.386 128.193 118.163 128.362 118.016 128.591L113.429 135.233C112.573 136.464 114.538 137.526 115.409 136.388L121.647 128.132C122.533 126.955 120.546 125.839 119.667 126.97H119.606Z" fill="#6C63FF"/>
<path d="M217.126 154.557C226.298 148.946 233.59 140.576 241.693 133.575C250.483 125.984 259.709 118.914 269.21 112.218C287.662 99.2236 307.039 87.5974 326.401 76.0019C326.652 75.8431 326.831 75.5933 326.902 75.3049C326.972 75.0164 326.928 74.7119 326.778 74.4554C326.629 74.1989 326.386 74.0105 326.1 73.9296C325.814 73.8488 325.508 73.882 325.247 74.0221C305.885 85.6177 286.501 97.2209 268.048 110.238C259.342 116.353 250.842 122.835 242.694 129.715C233.827 137.205 225.931 146.531 215.941 152.577C214.68 153.341 215.834 155.329 217.095 154.557H217.126Z" fill="#6C63FF"/>
<path d="M356.005 40.3973C346.068 41.4063 335.367 43.9364 329.252 52.6273C323.97 60.1029 324.085 73.1432 329.045 80.8175C334.679 89.539 346.19 89.8524 355.134 87.0318C364.077 84.2113 373.333 79.2658 373.249 68.5798C373.203 62.847 371.132 56.8772 368.847 51.6795C366.874 47.1926 363.381 43.2714 358.092 43.7682C356.632 43.9058 356.617 46.1989 358.092 46.0613C365.178 45.404 367.455 53.8197 369.137 59.1321C370.666 64.0929 372.08 69.9634 369.68 74.8936C367.28 79.8238 361.493 82.3386 356.548 84.1425C351.197 86.084 345.319 87.2688 339.731 85.6713C328.663 82.5755 325.606 68.5493 328.793 58.5971C332.462 47.1314 345.457 43.7606 356.043 42.6904C357.496 42.5452 357.511 40.2521 356.043 40.3973H356.005Z" fill="#6C63FF"/>
<path d="M371.293 129.065C361.356 130.074 350.655 132.604 344.54 141.295C339.258 148.77 339.373 161.811 344.334 169.485C349.967 178.207 361.479 178.52 370.422 175.699C379.365 172.879 388.622 167.933 388.537 157.247C388.492 151.515 386.42 145.545 384.135 140.347C382.163 135.86 378.669 131.939 373.38 132.436C371.92 132.573 371.905 134.866 373.38 134.729C380.466 134.072 382.743 142.487 384.425 147.8C385.954 152.76 387.368 158.631 384.968 163.561C382.568 168.491 376.781 171.006 371.836 172.81C366.485 174.752 360.607 175.936 355.02 174.339C343.951 171.243 340.894 157.217 344.081 147.265C347.75 135.799 360.745 132.428 371.331 131.358C372.784 131.213 372.799 128.92 371.331 129.065H371.293Z" fill="#6C63FF"/>
<path d="M341.015 62.7247L348.254 70.9799C348.397 71.1182 348.574 71.2171 348.767 71.2669C348.959 71.3168 349.162 71.3158 349.354 71.2643C349.546 71.2127 349.722 71.1123 349.864 70.9727C350.006 70.8332 350.11 70.6592 350.165 70.4678C351.694 66.4472 351.403 62.2814 351.762 58.0544C352.158 53.6855 353.255 49.4088 355.011 45.3887C358.537 37.2345 364.517 30.3816 372.118 25.7824C373.379 25.018 372.225 23.0307 370.963 23.8027C363.469 28.3157 357.456 34.9205 353.666 42.8051C351.81 46.6418 350.523 50.7282 349.844 54.9357C349.079 59.8965 349.775 65.0943 347.94 69.8563L349.859 69.3442L342.659 61.1042C341.68 59.9959 340.067 61.624 341.038 62.7247H341.015Z" fill="#6C63FF"/>
<path d="M220.818 163.492C260.245 162.29 299.681 162.035 339.128 162.728C339.432 162.728 339.724 162.607 339.939 162.392C340.154 162.177 340.275 161.885 340.275 161.581C340.275 161.277 340.154 160.986 339.939 160.771C339.724 160.556 339.432 160.435 339.128 160.435C299.692 159.732 260.255 159.986 220.818 161.199C219.343 161.245 219.335 163.538 220.818 163.492Z" fill="#6C63FF"/>
<path d="M347.368 140.882C360.846 146.172 373.81 152.686 386.099 160.343C387.352 161.107 388.507 159.143 387.253 158.363C374.803 150.612 361.666 144.021 348.01 138.673C346.642 138.13 346.046 140.347 347.406 140.882H347.368Z" fill="#6C63FF"/>
<path d="M371.843 130.494C358.175 146.427 350.258 166.491 349.363 187.463C349.301 188.938 351.595 188.938 351.656 187.463C352.524 167.093 360.203 147.603 373.463 132.115C374.419 130.999 372.806 129.371 371.843 130.494Z" fill="#6C63FF"/>
<path d="M66.1303 155.168L151.565 154.052L161.387 153.922C163.152 153.922 164.918 153.861 166.684 153.854C169.168 153.854 170.842 155.917 170.796 158.44C170.682 163.79 167.318 163.599 162.916 163.79L152.298 164.272L109.065 166.175C101.322 166.519 93.5714 166.94 85.8282 167.207C78.8418 167.421 65.557 165.143 68.6604 154.977C69.0884 153.563 66.8794 152.959 66.4437 154.366C64.9149 159.365 67.6208 164.44 71.9777 167.062C78.1615 170.777 86.3098 169.516 93.1357 169.21L146.214 166.802L159.101 166.229C162.403 166.076 166.997 166.749 170.032 165.212C173.594 163.416 174.221 156.284 171.973 153.28C170.819 151.752 169.199 151.614 167.387 151.545C162.633 151.362 157.794 151.675 153.032 151.736L126.569 152.088L66.0997 152.852C65.7956 152.852 65.504 152.973 65.2889 153.188C65.0739 153.403 64.9531 153.695 64.9531 153.999C64.9531 154.303 65.0739 154.595 65.2889 154.81C65.504 155.025 65.7956 155.145 66.0997 155.145L66.1303 155.168Z" fill="#6C63FF"/>
<path d="M411.307 436.076C409.381 437.284 407.18 437.964 405.192 439.027C403.205 440.089 401.271 441.687 400.706 443.888C400.494 444.572 400.53 445.307 400.805 445.967C401.299 446.765 402.056 447.365 402.945 447.664C406.982 449.457 411.343 450.408 415.761 450.458C420.178 450.508 424.559 449.656 428.636 447.955C430.07 447.265 431.552 446.678 433.069 446.197C434.938 445.816 436.841 445.621 438.749 445.616C440.754 445.499 442.748 445.243 444.718 444.851C445.709 444.741 446.647 444.351 447.424 443.728C448.133 442.911 448.559 441.887 448.64 440.808C449.544 434.853 448.18 428.775 444.818 423.778C444.394 423.077 443.826 422.475 443.151 422.012C442.329 421.587 441.424 421.344 440.499 421.301C436.677 420.835 432.672 419.979 428.812 419.887C426.045 419.826 424.653 421.14 422.697 423.044C418.653 427.087 416.291 432.965 411.307 436.076Z" fill="#323444"/>
<path d="M467.636 435.511C467.636 439.256 468.087 443.223 470.357 446.212C471.395 447.504 472.653 448.604 474.072 449.461C478.872 452.518 485.232 453.642 490.292 451.051C491.109 450.684 491.808 450.096 492.31 449.354C493.074 448.024 492.669 446.365 492.241 444.897L484.918 419.52C480.187 420.246 473.231 420.758 469.027 423.158C465.977 424.894 467.636 432.163 467.636 435.511Z" fill="#323444"/>
<path d="M407.012 279.249C406.569 280.648 404.964 281.298 404.085 282.475C403.053 283.859 403.16 285.777 403.534 287.459C403.997 289.939 405.162 292.233 406.89 294.071C407.767 294.981 408.849 295.668 410.046 296.075C411.243 296.482 412.519 296.597 413.769 296.41C415.004 296.182 416.129 295.555 416.973 294.626C417.816 293.696 418.332 292.516 418.44 291.265C418.395 290.129 418.152 289.008 417.721 287.956L412.508 272.882C412.504 272.775 412.47 272.671 412.41 272.583C412.35 272.494 412.266 272.424 412.168 272.381C412.069 272.338 411.961 272.323 411.855 272.339C411.749 272.355 411.649 272.4 411.568 272.469C410.337 273.05 407.868 273.662 407.15 274.938C406.431 276.215 407.532 277.866 407.012 279.249Z" fill="#FBB3B2"/>
<path d="M404.574 278.493C406.478 278.195 408.144 277.079 409.925 276.345C411.706 275.611 413.938 275.328 415.436 276.551C415.864 276.903 416.277 277.384 416.835 277.377C416.076 273.639 414.928 269.991 413.41 266.492C413.357 266.324 413.253 266.177 413.112 266.072C412.904 265.987 412.671 265.987 412.463 266.072L407.318 267.417C405.415 267.914 405.193 267.761 405.339 269.634C405.377 270.467 405.805 278.493 404.574 278.493Z" fill="#323444"/>
<path d="M404.008 169.646C403.244 170.823 403.244 172.29 403.244 173.674C403.244 180.439 403.313 187.241 404.314 193.937C404.551 195.543 404.849 197.148 405.002 198.768C405.175 201.024 405.211 203.288 405.109 205.548L404.345 234.977C404.253 238.577 404.069 242.445 401.845 245.273C401.171 246.221 400.854 247.377 400.951 248.537C401.532 255.921 402.755 263.243 403.97 270.543C405.927 269.66 408.065 269.254 410.209 269.356C412.353 269.458 414.443 270.067 416.307 271.132C420.164 259.005 422.297 246.397 422.644 233.677C422.82 227.417 422.552 221.119 423.515 214.935C425.128 204.524 424.471 193.846 423.286 183.374C422.911 180.056 422.116 176.64 419.991 174.071C417.98 171.824 415.301 170.281 412.348 169.668C409.519 168.927 406.989 169.691 404.008 169.646Z" fill="#5B5583"/>
<path opacity="0.1" d="M404.008 169.646C403.244 170.823 403.244 172.29 403.244 173.674C403.244 180.439 403.313 187.241 404.314 193.937C404.551 195.543 404.849 197.148 405.002 198.768C405.175 201.024 405.211 203.288 405.109 205.548L404.345 234.977C404.253 238.577 404.069 242.445 401.845 245.273C401.171 246.221 400.854 247.377 400.951 248.537C401.532 255.921 402.755 263.243 403.97 270.543C405.927 269.66 408.065 269.254 410.209 269.356C412.353 269.458 414.443 270.067 416.307 271.132C420.164 259.005 422.297 246.397 422.644 233.677C422.82 227.417 422.552 221.119 423.515 214.935C425.128 204.524 424.471 193.846 423.286 183.374C422.911 180.056 422.116 176.64 419.991 174.071C417.98 171.824 415.301 170.281 412.348 169.668C409.519 168.927 406.989 169.691 404.008 169.646Z" fill="black"/>
<path d="M413.349 254.988C408.222 281.259 411.021 308.461 421.39 333.138C422.286 334.965 422.914 336.911 423.255 338.917C423.676 342.662 421.948 346.262 420.962 349.885C418.669 358.125 419.991 366.9 421.459 375.331C422.07 378.848 422.7 382.361 423.347 385.872C423.981 389.297 424.593 393.019 423.003 396.122C424.371 401.825 425.181 407.473 426.55 413.176C426.695 413.627 426.739 414.104 426.679 414.574C426.404 415.321 425.918 415.971 425.281 416.447C424.261 417.481 423.528 418.763 423.154 420.166C422.78 421.569 422.778 423.046 423.148 424.45C426.641 421.943 431.51 422.822 435.5 424.45C439.49 426.078 443.419 428.272 447.73 428.272C447.104 423.212 446.5 417.9 448.365 413.153C449.45 410.401 451.361 407.802 451.308 404.859C451.254 402.222 449.641 399.868 449.252 397.261C449.107 395.64 449.168 394.006 449.435 392.4C450.459 383.044 449.297 373.596 448.136 364.256C448.004 362.414 447.57 360.606 446.851 358.905C446.309 357.804 445.498 356.749 445.514 355.519C445.514 354.089 446.668 352.928 447.096 351.567C447.86 349.06 446.454 345.651 448.571 344.099C454.151 340.002 452.011 330.218 451.889 323.3C451.792 317.333 451.537 311.371 451.124 305.414C454.637 315.292 456.074 325.79 455.344 336.249C455.099 339.673 454.648 343.273 455.986 346.438C457.01 348.869 459.043 350.871 459.594 353.447C459.937 355.037 459.693 356.681 459.769 358.301C459.846 359.922 460.396 361.687 461.795 362.505C461.902 369.874 462.559 377.755 462.674 385.123C462.6 388.89 462.907 392.655 463.591 396.359C463.934 397.538 464.124 398.756 464.157 399.983C463.984 401.521 463.577 403.024 462.949 404.439C461.617 408.383 461.269 412.594 461.935 416.703C462.601 420.813 464.261 424.698 466.771 428.02C468.575 424.817 472.336 423.12 476.005 422.853C479.674 422.585 483.297 423.51 486.851 424.443C486.308 419.977 487.196 415.453 489.389 411.525C489.977 410.639 490.428 409.67 490.727 408.651C491.139 406.709 490.176 404.775 489.656 402.857C488.808 399.799 489.106 396.505 489.305 393.31C489.972 382.609 489.498 371.867 487.891 361.267C487.643 359.179 487.153 357.127 486.431 355.152C486.156 354.449 485.819 353.776 485.59 353.065C485.229 351.79 485.024 350.476 484.978 349.152L484.099 336.922C483.48 328.353 486.293 319.891 488.258 311.529C489.137 307.784 490.092 304.046 490.681 300.239C491.483 295.057 491.613 289.76 492.79 284.646C493.845 280.06 495.748 275.588 496.146 270.887C496.757 263.603 493.731 256.563 490.795 249.882C489.572 247.13 484.948 247.406 481.974 246.916C460.885 243.454 438.673 243.431 418.784 251.235C416.727 252.087 414.874 253.366 413.349 254.988Z" fill="#3C354C"/>
<path d="M428.551 119.319L430.89 128.415C431.526 130.501 431.879 132.663 431.938 134.844C431.962 135.639 431.786 136.427 431.426 137.137C431.041 137.719 430.548 138.223 429.973 138.62C428.376 139.835 427.267 142.671 425.44 143.512C426.381 145.147 427.68 144.085 429.377 144.903C432.366 146.355 435.102 148.442 438.343 149.16C441.401 149.833 444.611 149.199 447.646 148.396C451.949 147.226 456.229 145.614 459.692 142.793C463.155 139.972 465.127 137.481 465.112 133.024C461.29 133.475 457.888 129.615 456.199 126.145C455.613 124.826 455.182 123.443 454.915 122.025L452.866 113.013C450.634 113.502 448.815 115.1 446.682 115.933C444.55 116.766 442.027 116.842 439.658 116.95C435.452 117.141 431.269 117.683 427.153 118.57C426.587 118.685 425.876 119.044 426.014 119.594" fill="#FBB3B2"/>
<path opacity="0.1" d="M428.551 119.319L430.89 128.415C431.526 130.501 431.879 132.663 431.938 134.844C431.962 135.639 431.786 136.427 431.426 137.137C431.041 137.719 430.548 138.223 429.973 138.62C428.376 139.835 427.267 142.671 425.44 143.512C426.381 145.147 427.68 144.085 429.377 144.903C432.366 146.355 435.102 148.442 438.343 149.16C441.401 149.833 444.611 149.199 447.646 148.396C451.949 147.226 456.229 145.614 459.692 142.793C463.155 139.972 465.127 137.481 465.112 133.024C461.29 133.475 457.888 129.615 456.199 126.145C455.613 124.826 455.182 123.443 454.915 122.025L452.866 113.013C450.634 113.502 448.815 115.1 446.682 115.933C444.55 116.766 442.027 116.842 439.658 116.95C435.452 117.141 431.269 117.683 427.153 118.57C426.587 118.685 425.876 119.044 426.014 119.594" fill="black"/>
<path d="M438.597 124.333C449.776 124.333 458.838 115.271 458.838 104.093C458.838 92.9141 449.776 83.8521 438.597 83.8521C427.419 83.8521 418.356 92.9141 418.356 104.093C418.356 115.271 427.419 124.333 438.597 124.333Z" fill="#FBB3B2"/>
<path d="M444.169 137.458C445.251 135.12 446.814 133.036 448.755 131.343C451.606 128.843 455.504 126.818 456.177 123.087L462.353 130.28C462.689 130.614 462.949 131.015 463.118 131.457C463.195 131.872 463.184 132.299 463.084 132.709C462.983 133.119 462.797 133.502 462.537 133.835C461.008 136.273 458.6 138.016 456.322 139.781C451.101 143.917 446.103 148.326 441.348 152.99C441.139 153.233 440.858 153.404 440.545 153.479C440.25 153.487 439.959 153.404 439.712 153.242C435.61 151.088 431.979 148.136 429.034 144.559C428.812 144.291 428.537 143.985 428.178 144.008C427.961 144.048 427.762 144.152 427.605 144.307C425.548 145.988 423.301 147.998 420.664 147.739C424.081 145.285 426.015 141.188 426.733 137.037C426.875 135.617 427.167 134.215 427.605 132.856C427.831 132.176 428.222 131.563 428.741 131.069C429.261 130.576 429.895 130.218 430.586 130.028C428.919 132.573 430.058 136.181 432.298 138.237C434.474 140.084 437.083 141.349 439.88 141.914C442.479 142.403 443.244 139.46 444.169 137.458Z" fill="#323444"/>
<path d="M417.836 257.067C420.717 257.778 423.446 258.986 426.244 259.88C431.343 261.477 436.709 262.041 442.028 261.539C443.665 261.503 445.258 260.996 446.614 260.079C446.974 259.788 447.302 259.444 447.685 259.177C448.324 258.793 449.017 258.507 449.741 258.328C456.75 256.135 462.62 251.403 468.315 246.771C468.499 246.618 468.705 246.427 468.69 246.183C468.663 246.016 468.583 245.863 468.46 245.747L465.464 242.307C457.606 243.645 449.557 243.14 441.585 242.942C439.948 242.869 438.308 242.912 436.678 243.072C435.103 243.255 433.551 243.652 432 243.989C426.106 245.273 420.083 245.762 414.113 246.603C413.696 246.634 413.29 246.759 412.928 246.97C412.677 247.164 412.462 247.403 412.294 247.673L410.2 250.616C409.387 251.606 408.788 252.754 408.442 253.987C407.952 256.28 408.977 257.044 410.926 256.746C413.228 256.409 415.574 256.518 417.836 257.067Z" fill="#323444"/>
<path d="M441.264 149.489C438.926 147.093 436.275 145.023 433.384 143.336C432.215 142.594 430.919 142.075 429.562 141.807C428.879 141.672 428.174 141.688 427.498 141.855C426.822 142.021 426.191 142.334 425.648 142.77C424.968 143.374 424.54 144.215 423.882 144.849C423.055 145.544 422.107 146.081 421.085 146.431C417.605 147.918 414.307 149.798 411.255 152.034C409.591 153.198 408.092 154.581 406.799 156.147C403.336 160.58 402.816 166.611 402.908 172.237C402.977 176.15 406.73 179.055 409.313 181.983C411.737 184.863 413.929 187.93 415.872 191.155C417.263 193.356 418.715 195.741 418.539 198.363C418.394 200.511 417.141 202.529 417.339 204.669C417.408 205.434 417.653 206.137 417.722 206.878C417.859 208.407 417.255 209.936 417.102 211.465C416.896 213.628 417.599 215.776 417.637 217.954C417.609 219.445 417.42 220.929 417.072 222.38C415.604 229.366 413.762 236.391 414.137 243.522L409.902 244.287C410.303 244.68 410.606 245.162 410.786 245.694C410.966 246.226 411.019 246.793 410.939 247.349C410.86 247.905 410.65 248.434 410.328 248.894C410.006 249.354 409.579 249.732 409.084 249.997C415.696 252.206 422.843 251.09 429.852 251.082C435.654 251.082 441.432 251.847 447.226 251.74C453.02 251.633 458.998 250.585 463.775 247.306C465.075 246.419 466.267 245.38 467.635 244.608C469.468 243.658 471.443 243.013 473.483 242.697C477.261 241.976 481.102 241.633 484.948 241.673C486.829 241.673 488.877 241.749 490.375 240.618C492.027 239.364 492.447 237.094 492.669 235.038C492.89 232.867 493.028 230.689 493.066 228.51C493.13 226.814 493.041 225.115 492.799 223.435C492.569 222.206 492.27 220.991 491.904 219.796L489.022 209.645C487.83 205.457 489.489 200.863 489.84 196.521C489.924 195.497 489.94 194.304 489.152 193.647C488.87 193.41 488.48 193.249 488.388 192.883C488.347 192.708 488.342 192.528 488.373 192.351C488.405 192.175 488.472 192.007 488.572 191.858C490.1 188.801 492.393 186.103 494.488 183.343C498.005 178.503 501.271 173.485 504.272 168.308C503.332 157.475 498.771 147.275 491.323 139.353C489.869 137.6 488.009 136.228 485.904 135.356C484.505 134.928 483.055 134.694 481.593 134.66C475.6 134.255 469.363 133.896 464.142 130.884C463.767 130.625 463.343 130.445 462.896 130.357C461.742 130.227 460.901 131.366 460.152 132.268C458.226 134.561 455.39 135.875 452.898 137.565C448.251 140.722 444.62 145.063 441.264 149.489Z" fill="#5B5583"/>
<path d="M504.792 171.434C505.985 175.21 505.87 179.246 506.26 183.183C506.491 185.558 506.907 187.912 507.506 190.223C507.779 191.492 508.27 192.705 508.958 193.807C509.646 194.816 510.632 195.634 511.068 196.773C511.306 197.545 511.412 198.351 511.381 199.158L511.473 204.432C511.669 207.227 511.243 210.031 510.227 212.642L506.932 222.663C505.151 228.09 503.325 233.601 500.114 238.325C499.662 239.124 498.977 239.767 498.15 240.167C497.502 240.338 496.839 240.44 496.17 240.473C495.005 240.68 493.948 241.288 493.182 242.191C492.416 243.093 491.989 244.234 491.974 245.418C491.209 244.3 490.254 243.325 489.153 242.536L482.449 237.186C480.156 235.321 477.764 233.425 474.981 232.347C478.724 231.179 482.046 228.949 484.545 225.928C487.045 222.908 488.614 219.227 489.061 215.332C489.059 214.173 489.32 213.028 489.826 211.984C490.384 211.082 491.416 210.394 491.492 209.332C491.584 207.994 490.07 206.985 490.07 205.648C490.07 204.761 490.728 204.027 491.018 203.194C491.29 202.164 491.29 201.082 491.018 200.052L490.093 194.916C490.039 194.401 489.883 193.902 489.635 193.448C489.288 193.013 488.905 192.609 488.488 192.24C486.898 190.459 487.601 187.654 488.488 185.46C490.524 180.591 493.148 175.988 496.3 171.755C497.422 170.334 498.461 168.848 499.411 167.307C500.221 165.9 500.405 163.951 501.261 162.72C502.361 165.61 503.852 168.461 504.792 171.434Z" fill="#5B5583"/>
<path d="M474.744 232.661C474.403 232.914 474.108 233.224 473.873 233.578C472.972 234.709 471.773 235.564 470.41 236.047C471.175 236.597 471.87 237.14 472.589 237.698C477.905 241.804 482.773 246.459 487.112 251.587C487.593 249.867 490.475 249.989 491.178 248.346C491.344 247.875 491.396 247.372 491.331 246.878C491.185 244.303 490.817 241.746 490.23 239.234C489.999 237.941 489.476 236.718 488.702 235.657C487.632 234.365 485.965 233.746 484.375 233.211C481.968 232.37 477.19 231.185 474.744 232.661Z" fill="#323444"/>
<path d="M465.189 238.669C462.896 240.366 460.886 242.491 458.31 243.652C456.49 244.478 454.419 244.837 452.829 246.068C453.693 247.971 455.94 248.957 458.027 248.881C460.115 248.676 462.117 247.942 463.844 246.748C465.212 245.907 466.817 244.929 468.308 245.517C468.537 246.679 467.543 247.772 467.543 248.95C467.543 250.127 468.522 250.983 469.485 251.602C474.071 254.56 479.972 254.315 485.437 253.971C485.751 253.983 486.06 253.892 486.316 253.712C486.435 253.573 486.525 253.413 486.581 253.24C486.638 253.067 486.659 252.884 486.645 252.703C486.714 251.495 486.744 250.295 486.752 249.087C486.907 248.113 486.78 247.116 486.387 246.211C485.995 245.307 485.352 244.533 484.535 243.981C481.57 241.432 478.371 239.167 474.981 237.216C471.617 235.267 468.208 236.421 465.189 238.669Z" fill="#FBB3B2"/>
<path d="M445.705 95.6311C442.311 96.0362 439.842 98.6886 440.186 101.57C440.53 104.452 443.557 106.439 446.951 106.027C450.345 105.614 452.814 102.969 452.47 100.095C452.126 97.221 449.099 95.226 445.705 95.6311ZM446.859 105.232C443.985 105.576 441.425 103.886 441.126 101.456C440.828 99.0249 442.93 96.7777 445.797 96.4337C448.663 96.0897 451.231 97.779 451.53 100.21C451.828 102.64 449.726 104.888 446.859 105.232Z" fill="#3C354C"/>
<path d="M429.164 97.6185C425.77 98.0236 423.301 100.676 423.645 103.55C423.989 106.424 427.016 108.419 430.41 108.014C433.804 107.609 436.273 104.956 435.929 102.075C435.585 99.1931 432.558 97.2134 429.164 97.6185ZM430.318 107.211C427.444 107.555 424.884 105.866 424.593 103.443C424.303 101.02 426.389 98.765 429.263 98.4134C432.137 98.0618 434.698 99.7587 434.989 102.189C435.279 104.62 433.185 106.867 430.318 107.211Z" fill="#3C354C"/>
<path d="M416.881 99.0937L424.257 100.668L423.531 102.61L416.575 100.569L416.881 99.0937Z" fill="#3C354C"/>
<path d="M457.997 94.1558L451.194 97.4349L452.364 99.1471L458.639 95.5164L457.997 94.1558Z" fill="#3C354C"/>
<path d="M435.249 100.179L440.424 99.5599L440.156 100.844L435.715 101.142L435.249 100.179Z" fill="#3C354C"/>
<path d="M425.212 98.4439C425.699 97.3967 425.96 96.2584 425.977 95.1036C425.995 94.4124 426.113 93.7275 426.328 93.0704C426.704 92.2358 427.276 91.5042 427.995 90.9378C430.38 88.9198 433.796 87.8803 437.167 87.735C440.843 87.5659 444.499 88.3562 447.777 90.0282C448.778 90.4972 449.675 91.1627 450.414 91.985C451.484 93.292 451.713 94.9813 452.791 96.2731C453.527 97.057 454.452 97.6376 455.478 97.959C456.504 98.2804 457.595 98.3316 458.646 98.1076C459.021 96.7776 458.532 95.3711 458.723 94.0105C459.024 92.8447 459.431 91.7087 459.938 90.6167C461.123 87.1235 459.395 83.0724 455.833 80.9856C454.587 80.2212 453.112 79.7244 452.18 78.6925C451.247 77.6606 451.025 76.5904 450.383 75.5585C448.679 72.8297 444.268 71.5532 440.913 72.8144C439.858 73.2119 438.925 73.8158 437.855 74.2438C435.868 75.0617 433.605 75.2069 431.419 75.4821C429.264 75.6813 427.157 76.234 425.182 77.1179C423.294 78.0504 421.712 79.5486 421.276 81.3372C421.069 82.1627 421.115 83.0188 420.909 83.8367C419.854 87.9873 413.044 90.0052 412.661 94.2399C412.524 95.7686 413.357 97.2362 414.396 98.4822C415.115 99.3306 416.835 101.601 418.05 101.929C419.266 102.258 420.19 101.104 421.352 100.706C423.187 100.133 424.295 100.011 425.212 98.4439Z" fill="#271C19"/>
<path d="M542.224 397.288C542.224 426.105 560.304 449.429 582.646 449.429L542.224 397.288Z" fill="#46455B"/>
<path d="M579.59 448.326C579.59 419.181 599.769 395.6 624.705 395.6L579.59 448.326Z" fill="#6C63FF"/>
<path d="M556.874 399.904C556.874 427.282 568.404 449.435 582.647 449.435L556.874 399.904Z" fill="#6C63FF"/>
<path d="M126.868 410.176C126.868 430.661 139.705 447.207 155.574 447.207L126.868 410.176Z" fill="#46455B"/>
<path d="M137.269 412.039C137.269 431.497 145.461 447.216 155.574 447.216L137.269 412.039Z" fill="#6C63FF"/>
<path d="M155.574 447.206C155.574 425.795 168.985 408.466 185.555 408.466L155.574 447.206Z" fill="#46455B"/>
<path d="M634.789 447.216H84.8184V449.436H634.789V447.216Z" fill="#3F3D56"/>
</g>
<defs>
<clipPath id="clip0_202_6">
<rect width="634.043" height="452.493" fill="white" transform="translate(0.745117)"/>
</clipPath>
</defs>
</svg>
