<svg id="Layer_1" data-name="Layer 1" xmlns="http://www.w3.org/2000/svg" viewBox="0 0 721.68 721.68"><defs><style>.cls-1{fill:#f8f9fc;}.cls-2{fill:#ffc107;}.cls-3{fill:#fefefe;}.cls-4{fill:#0d6efd;}.cls-5{fill:#fff;}.cls-6{font-size:26px;fill:#5d6678;font-family:Exo2-LightItalic, "Exo 2";font-weight:300;font-style:italic;}</style></defs><path class="cls-1" d="M2.38,507.9v-488c2.76-3.52,6.94-4,10.86-4.88C38.87,9.48,64.29,2.73,90.56.5q118,0,236.06,0c57.62,7,113.38,21.62,167.57,42.07,36.45,13.75,71.28,31,101.18,56.55,33,28.24,56.77,62.09,63.34,106.25a180.62,180.62,0,0,1-2.28,64.24c-11,47.75-35.08,88.24-68,124.1C578.14,404.88,567,415,556.05,425.37c-2.88,2.73-4.3,5.42-3.48,9.47,8.13,40,.68,78.23-13.21,115.66-6.93,18.69-15,36.91-25.2,54.07a22.55,22.55,0,0,1-3.2,4.76c-2.28,2.26-5,2.94-7.91,1.64-2.63-1.16-2.76-3.69-2.67-6.16a19.11,19.11,0,0,1,.73-4.24c7.09-26.52,0-50.8-12-74.15-5.84-11.34-13.76-21.33-21.56-31.4-4-5.22-7.77-5.58-13.5-2.79a546.72,546.72,0,0,1-129.72,44.25c-48.71,10-98,12.25-147.45,10.66-16-.51-32-2.45-47.94-4.48-19-3.58-38.24-5.84-57-10.84-20.8-5.55-41.34-11.86-61.51-19.37C7.5,511.36,4.59,510.25,2.38,507.9Z"/><path class="cls-2" d="M129.64,541c-16.57,6.5-34.07,9.41-51.4,12.67-25,4.71-50.42,5.5-75.86,4.59V507.9c16.77,5.47,33.52,11,50.33,16.37,23.06,7.36,46.8,11.65,70.66,15.37C125.48,540,127.55,540.56,129.64,541Z"/><path class="cls-3" d="M722.14,720.94q0-355.47.17-710.94c0-7.2-1.6-9.18-8.92-9-22.53.6-45.08.35-67.63.43-2.81,2.41-6.26,2.16-9.59,2.16q-139.26.09-278.52,0c-9.33,0-18.61-1.22-27.89-2.15-24.91-.08-49.82-.23-74.74-.23q-83.36,0-166.73.16c-26.12,3.46-52.37,2-78.58,2.15-2.66,0-5.25-.39-7.33-2.32,1.29-3,3.89-1.35,5.75-1.35,35-.12,70-.09,105-.09q302.15,0,604.29-.14c5.19,0,6.26,1.07,6.26,6.25q-.24,354.66-.23,709.31C723.49,717.05,725.11,719.65,722.14,720.94Z"/><path class="cls-2" d="M2.38,1.21l85.91.17C68,5.6,47.73,9.75,27.48,14.06c-8.41,1.78-16.74,3.9-25.1,5.86Z"/><path class="cls-2" d="M329.76,1.45c20.35-.08,40.69-.22,61-.23q123.18,0,246.36,0c2.87,0,5.74.15,8.6.23,15.6,26.69,28.73,54.46,38.12,84,10,31.33,15.28,63.24,12.21,96-3.18,34-16.21,63.67-41.36,87.44,6.8-35.42,5.43-70.23-9.73-103.43-15.9-34.83-42.1-60.9-73.57-81.81C527.21,54.32,477.89,36.77,427.07,23a872.1,872.1,0,0,0-95.41-20.6A7.16,7.16,0,0,1,329.76,1.45Z"/><path class="cls-4" d="M69.69,297.32a50,50,0,0,1,5.09.4c3.23.54,7.37.32,8.55,4s-1,7.38-2.65,10.85c-1,2.21-2.61,1.37-4.22.94a54,54,0,0,0-6.25-1.35c-1.74-.24-3.57.19-4.16,2s.87,3,2.42,3.86c2.32,1.24,4.69,2.38,6.94,3.72,9.17,5.49,11.74,11.63,9.18,21.68-2.32,9.13-8,13.49-18.37,13.72-5,.11-10.08.18-14.7-2.35-3.69-2-5.55-4.89-5.08-9.35.86-8.13,2.49-9.2,9.67-5.79a28.37,28.37,0,0,0,4,1.49c2.11.63,4.58,1.24,5.75-1.15,1.51-3.12-1.37-4.12-3.41-5.16-5.81-3-11.61-5.89-13.76-12.76C44.23,307.85,53.2,296.92,69.69,297.32Z"/><path class="cls-4" d="M382.78,341.21c0,5.76-.17,11.51,0,17.26.25,7.18-3.48,11.08-10,13-5.91,1.75-11.77,1.09-17.76.16s-4.8-4.93-4.41-8.65c.52-5.11,3.86-2.64,6.42-2.19a7.47,7.47,0,0,0,2.13.25c3-.42,8.08,2.1,8.41-2.4.29-3.91-4.53-1.44-7-1.88-6.45-1.15-11.49-4.06-13.22-10.54-2.48-9.29-3.25-18.7,4.47-26.19,7.46-7.25,16.53-6.23,25.66-4,3.84.95,5.47,3.1,5.28,7.19C382.57,329.22,382.78,335.22,382.78,341.21Z"/><path class="cls-4" d="M97.33,350.29c0-4.3.07-8.61,0-12.91-.07-3.53,1-6.87-3.88-9.33-3.56-1.81-2.3-6.86-.42-10.42,2-3.8,5.85-4,8.66-2.23,3.8,2.42,6.53,1.68,10.37.2,10.41-4,20,2.11,21.4,13.28.77,6.19,1,12.44-1.77,18.32-2.5,5.38-6.74,9.63-12.58,9.21-7.79-.56-8.2,3.44-7.36,8.94.93,6.15-1.71,7.44-7.5,7.47s-7.43-2-7-7.46C97.65,360.37,97.33,355.32,97.33,350.29Z"/><path class="cls-4" d="M245.4,327.79c3.69-10,9-17,21.46-12-2.5,4.11-4.86,8.46-7.69,12.48-2.25,3.19-2.2,5.88-.19,9.16,2.87,4.69,5.2,9.71,8,14.46,2.25,3.85.94,4.51-3,4.93-8,.83-14.09-.52-16.13-9.58-.42-1.88-1.06-4.13-3.18-5.42-1.59,1.94-.79,4.13-.83,6.11-.18,8.36-4,11.06-12.19,8.7-2.87-.83-2.86-2.83-2.86-5,0-16.53,0-33.07,0-49.6,0-6.58,4.91-4.47,8.25-4.78,3.67-.33,7.22-.39,7,5.29-.36,8.09-.09,16.21-.09,24.32Z"/><path class="cls-4" d="M151.57,249.68c1.5-5,3.07-9.79,4.3-14.63.7-2.75,2.07-3.8,4.9-4.09,11.53-1.18,12.38-.16,8.54,10.87-4.94,14.22-9.79,28.48-14.77,42.69-1.43,4.06-13.68,6.4-16.67,3.32-1.34-1.38-.46-2.9.23-3.88,7.31-10.51,4-20.65-.59-31-2.44-5.44-4.09-11.23-6.37-16.75-1.46-3.53-1.16-5.05,3.2-5.3,9.82-.58,10.37-.32,13.4,9.31C148.72,243.38,148.88,246.88,151.57,249.68Z"/><path class="cls-4" d="M339,340.79V348c0,8.47-3.12,10.7-11.44,8.74-3.06-.72-2.88-2.71-2.89-4.85,0-5.52.1-11-.06-16.55-.08-2.86,1-7.09-3.76-6.93-4.07.14-3.36,3.88-3.37,6.69,0,5.75-.19,11.51,0,17.26s-3.87,4.44-6.92,4.33-7.79,1.83-7.55-4.44c.17-4.31.13-8.64,0-13s1.07-8.4-3.86-11.79c-3.31-2.27-1.76-7.23.38-10.58,2.3-3.63,6.12-2.93,9-1.17s5.11,2,8.37.54c12.72-5.56,21.19-.16,22,13.72.21,3.58,0,7.19,0,10.79Z"/><path class="cls-4" d="M211.4,246.88a46.2,46.2,0,0,0-.06-7.16c-1.06-6.87,2-8.65,8.44-8.36,4.62.22,6.42,1.49,6.11,6.23-.34,5.48-.15,11,0,16.5.06,2.54-.28,5.9,3.48,5.91,3.54,0,3.7-3,3.67-5.77-.06-5.74.26-11.5-.09-17.22-.37-6.18,3.69-5.46,7.54-5.5s7.38-.46,6.87,5.27a101.16,101.16,0,0,0,0,12.19c.13,4.21-1,8.25,3.78,11.77,3.44,2.57,1.4,7.75-1,11.12-2.25,3.08-5.79,2.32-8.4.54-2.44-1.65-4-2-6.93-.65-12.27,5.87-22,.17-23.14-13.39-.33-3.8,0-7.65,0-11.48Z"/><path class="cls-4" d="M79,239c0,6.46,0,12.93,0,19.4,0,7.13-3.72,11.95-10.28,14-7.48,2.33-15.24,2.8-21.94-2.3-3.81-2.9-2.08-6.9-.73-10.55,1.29-3.49,3.3-3.46,6.72-2.48,6.1,1.76,9.6-1.2,9.93-7.67.24-4.54-.08-9.11.11-13.65.17-4.11.28-7-5.59-7.35-5-.31-2.83-5.63-3.1-8.87-.23-2.81.51-5.36,4.23-5.23a5.77,5.77,0,0,0,.72,0c20.06-1.73,20.06-1.73,20.06,18.24V239Z"/><path class="cls-4" d="M198.64,314.54c13.6-.17,17.67,3.94,18.1,16.28.16,4.77-1.69,9.72,4.31,13.52,3.39,2.16,1.8,7.76-1,11.08-2.59,3.14-6.43,2.37-9.06.21-2.8-2.29-4.45-1.47-7.28-.12-5.92,2.82-12.24,3-17.46-1.75a14,14,0,0,1-4.16-15.69c2.29-6.95,8-8.11,14.26-8.69,1.88-.18,5.41,1.2,5.32-1.49-.13-3.66-3.84-2.43-6.33-2.38s-5,2.43-7.14-.73c-2.82-4.09-1.54-8.27,3.28-9.43A47.4,47.4,0,0,1,198.64,314.54Z"/><path class="cls-4" d="M124.76,252.53c-.05,13.13-7.22,21.13-19,21.2-12.1.08-19.67-8.21-19.6-21.46s7.68-21.38,19.87-21.2C117.74,231.25,124.8,239.33,124.76,252.53Z"/><path class="cls-4" d="M155.22,342.76c4.66,5.33,8.91,3.86,12.82,2.57,3.4-1.12,5.37-.66,6.47,3,1,3.29.3,5.4-2.93,7-7.65,3.75-19.92,2.17-25.56-3.54-6.24-6.31-7.67-18.15-3.26-26.89,4.08-8.08,11.06-11.42,21-10.07,8.42,1.15,13.35,6.89,13,15.18-.31,7.77-4.77,11.75-13.81,12.33C160.9,342.45,158.81,342.55,155.22,342.76Z"/><path class="cls-4" d="M198.78,213.8a37.82,37.82,0,0,1,5.42.72c2.81.73,5.88,1.62,4.28,5.73-1.12,2.86-.93,7.13-6.25,5.48-2.27-.7-5-1-5.63,2.41-.73,4,2.33,3.32,4.56,3.4,3.18.11,3.24,2.44,3.14,4.55-.11,2.62,1.14,6.44-3.21,6.67-3.9.2-4,2.38-4,5.22.06,6.69-.23,13.4.08,20.07.3,6.41-4.11,5.15-7.72,5.19s-7.49.92-7.15-5c.33-5.72.19-11.47,0-17.2-.1-3.43,1.31-6.93-3.86-9.27-2.75-1.25-3.05-7.7.76-9.75,2.77-1.48,3-2.84,3.31-5.19C184.07,216.7,187.83,213.56,198.78,213.8Z"/><path class="cls-4" d="M274.41,243.78c0,8.13-.27,16.27.08,24.39.29,6.61-4.28,5-7.75,5s-7.95,1.5-7.87-5c.22-16.26.1-32.52.07-48.78,0-7.49,5.67-4.61,9.36-5.13s6.44,0,6.21,5.1C274.14,227.51,274.41,235.65,274.41,243.78Z"/><path class="cls-4" d="M290.29,336.08c0,5.5-.2,11,.06,16.5.18,3.79-1.78,4.89-4.76,4.09-3.62-1-10,3.27-10.52-3.47-.85-11.66-.25-23.43-.26-35.15,0-2.07,1.06-2.71,3.06-3.07,10.34-1.88,12.42-.22,12.42,10.33Z"/><path class="cls-4" d="M282.87,310.32c-5.76,1-8.26-.53-8.35-6.95-.11-7.51,4.72-6.15,8.93-6.5,5.37-.46,7,1.86,7.09,7.38C290.71,310.93,287.4,311.12,282.87,310.32Z"/><path class="cls-5" d="M368.67,336.42c-1.55,2.42,2.14,7.28-3.16,7.29-4.33,0-4.64-4.16-4.57-7.59s.66-7.82,4.69-7.61C370.82,328.78,367,333.88,368.67,336.42Z"/><path class="cls-5" d="M111.87,336.25c.8-2.61-1.44-6.81,3.18-6.73,4.81.08,4.14,4.33,4.11,7.51,0,3,.26,7.07-4.1,6.82C109.57,343.52,113.24,338.6,111.87,336.25Z"/><path class="cls-5" d="M202.39,341.32c-.09,2.39-.95,4-3.33,3.77s-3.21-1.85-2.93-3.94,1.78-3.13,4-3.07C202.61,338.14,202.3,340,202.39,341.32Z"/><path class="cls-5" d="M110.38,252.56c-.13,3.29-.54,6.69-4.57,6.85-4.68.17-4.94-3.89-5-7.08s.43-7.38,4.92-7.19S110.3,249.2,110.38,252.56Z"/><path class="cls-5" d="M159.28,327.18c1.7,0,3.19.71,3.47,2.62.35,2.45-1.38,3.29-3.41,3.5-1.67.18-3.52.13-3.52-2.24A3.66,3.66,0,0,1,159.28,327.18Z"/><text class="cls-6" transform="translate(56.28 156.04)">A TRIED AND TRUE METHOD</text></svg>