<svg width="177" height="177" viewBox="0 0 177 177" fill="none" xmlns="http://www.w3.org/2000/svg">
<path d="M0.581238 124.038V4.85993C1.25528 4.00028 2.2761 3.88306 3.23343 3.66815C9.49272 2.31518 15.7007 0.66672 22.1163 0.122116C41.328 0.122116 60.5447 0.122116 79.7662 0.122116C93.8379 1.83164 107.455 5.40209 120.69 10.3963C129.591 13.7543 138.097 17.9671 145.399 24.2068C153.459 31.1035 159.264 39.3702 160.868 50.1549C161.622 55.3756 161.434 60.6892 160.311 65.8434C157.625 77.5047 151.744 87.3931 143.705 96.1507C141.192 98.8786 138.471 101.35 135.797 103.883C135.094 104.549 134.747 105.206 134.947 106.195C136.932 115.964 135.113 125.3 131.721 134.441C130.028 139.006 128.058 143.456 125.567 147.646C125.357 148.065 125.094 148.456 124.785 148.809C124.228 149.361 123.564 149.527 122.853 149.209C122.211 148.926 122.179 148.308 122.201 147.705C122.222 147.354 122.281 147.007 122.38 146.669C124.111 140.193 122.38 134.263 119.449 128.561C118.023 125.791 116.089 123.352 114.184 120.892C113.207 119.617 112.286 119.53 110.887 120.211C100.822 125.128 90.1783 128.759 79.2069 131.018C67.3111 133.46 55.2736 134.009 43.1971 133.621C39.2896 133.496 35.3822 133.023 31.4893 132.527C26.8492 131.653 22.1505 131.101 17.569 129.879C12.4893 128.524 7.47304 126.983 2.54718 125.149C1.83163 124.883 1.12096 124.612 0.581238 124.038Z" fill="#F8F9FC"/>
<path d="M31.6603 132.121C27.6136 133.709 23.3398 134.419 19.1075 135.216C13.0021 136.366 6.79412 136.559 0.581238 136.337V124.038C4.67676 125.374 8.76739 126.724 12.8727 128.036C18.5043 129.833 24.302 130.881 30.1291 131.789C30.6444 131.877 31.1499 132.014 31.6603 132.121Z" fill="#DB9300"/>
<path d="M0.581238 0.295502L21.5619 0.337019C16.6068 1.36761 11.6565 2.38111 6.71108 3.43369C4.65722 3.8684 2.62289 4.38614 0.581238 4.8648V0.295502Z" fill="#DB9300"/>
<path d="M80.533 0.354113C85.5028 0.334576 90.4702 0.300385 95.4303 0.297943C115.485 0.297943 135.54 0.297943 155.596 0.297943C156.296 0.297943 156.997 0.334576 157.696 0.354113C161.506 6.87226 164.712 13.6542 167.005 20.8683C169.448 28.5197 170.737 36.3126 169.987 44.3132C169.211 52.6165 166.029 59.8625 159.886 65.6675C161.547 57.0173 161.213 48.5161 157.51 40.4081C153.627 31.9021 147.229 25.5353 139.543 20.4287C128.754 13.2659 116.709 8.97986 104.298 5.61699C96.6309 3.50636 88.8518 1.82677 80.997 0.586119C80.8317 0.532286 80.6753 0.45409 80.533 0.354113Z" fill="#DB9300"/>
<path d="M17.0195 72.6106C17.4352 72.622 17.8501 72.6546 18.2625 72.7083C19.0513 72.8402 20.0624 72.7864 20.3506 73.6852C20.6387 74.5839 20.1064 75.4875 19.7034 76.3349C19.4592 76.8746 19.066 76.6695 18.6728 76.5645C18.171 76.4245 17.6613 76.3144 17.1464 76.2348C16.7215 76.1762 16.2746 76.2812 16.1305 76.7232C15.9864 77.1652 16.343 77.4559 16.7215 77.6659C17.2881 77.9687 17.8669 78.2471 18.4164 78.5744C20.6558 79.9151 21.2835 81.4146 20.6583 83.869C20.0917 86.0987 18.7045 87.1635 16.172 87.2197C14.9509 87.2465 13.7103 87.2636 12.582 86.6457C11.6809 86.1573 11.2266 85.4515 11.3414 84.3623C11.5514 82.3768 11.9495 82.1155 13.703 82.9483C14.019 83.094 14.3456 83.2156 14.6799 83.3122C15.1952 83.466 15.7984 83.615 16.0841 83.0313C16.4529 82.2694 15.7495 82.0252 15.2513 81.7712C13.8324 81.0385 12.416 80.3327 11.8909 78.655C10.8017 75.1822 12.9923 72.5129 17.0195 72.6106Z" fill="#2E3F5C"/>
<path d="M93.4814 83.3293C93.4814 84.736 93.4399 86.1402 93.4814 87.5445C93.5424 89.2979 92.6315 90.2504 91.0392 90.7193C89.5959 91.1467 88.1648 90.9855 86.7019 90.7584C85.2391 90.5312 85.5297 89.5544 85.6249 88.6459C85.7519 87.3979 86.5676 88.0012 87.1928 88.1111C87.3624 88.1563 87.5376 88.1769 87.713 88.1721C88.4456 88.0695 89.6863 88.685 89.7669 87.586C89.8377 86.6311 88.6605 87.2343 88.0573 87.1269C86.4821 86.846 85.2513 86.1353 84.8288 84.5528C84.2231 82.284 84.0351 79.9859 85.9204 78.1568C87.7423 76.3862 89.9573 76.6353 92.187 77.1799C93.1248 77.4119 93.5229 77.937 93.4765 78.9358C93.4301 80.4011 93.4814 81.8664 93.4814 83.3293Z" fill="#2E3F5C"/>
<path d="M23.7696 85.5468C23.7696 84.4966 23.7867 83.4441 23.7696 82.3939C23.7525 81.5319 24.0138 80.7162 22.8221 80.1154C21.9526 79.6734 22.2604 78.4401 22.7195 77.5707C23.2079 76.6426 24.1482 76.5938 24.8344 77.026C25.7624 77.6171 26.4291 77.4363 27.3669 77.0749C29.9092 76.098 32.2513 77.5902 32.5932 80.3181C32.7812 81.8298 32.8374 83.3562 32.1609 84.7922C31.5504 86.106 30.5149 87.144 29.0887 87.0414C27.1862 86.9046 27.0861 87.8815 27.2912 89.2247C27.5183 90.7266 26.8736 91.0417 25.4596 91.049C24.0456 91.0563 23.6451 90.5606 23.7501 89.2271C23.8478 88.0085 23.7696 86.7752 23.7696 85.5468Z" fill="#2E3F5C"/>
<path d="M59.9308 80.0519C60.832 77.6097 62.1288 75.9002 65.1717 77.1213C64.5612 78.125 63.9848 79.1874 63.2937 80.1691C62.7442 80.9482 62.7564 81.6051 63.2473 82.4061C63.9482 83.5515 64.5172 84.7775 65.201 85.9375C65.7505 86.8778 65.4306 87.0389 64.4684 87.1415C62.5147 87.3442 61.0274 87.0145 60.5292 84.8019C60.4266 84.3428 60.2703 83.7933 59.7526 83.4783C59.3643 83.952 59.5596 84.4869 59.5499 84.9704C59.5059 87.0121 58.573 87.6715 56.5729 87.0951C55.8719 86.8924 55.8744 86.404 55.8744 85.874C55.8744 81.8371 55.8744 77.7978 55.8744 73.7609C55.8744 72.1539 57.0735 72.6692 57.8892 72.5935C58.7855 72.5129 59.6524 72.4983 59.5987 73.8854C59.5108 75.8611 59.5767 77.8442 59.5767 79.8248L59.9308 80.0519Z" fill="#2E3F5C"/>
<path d="M37.016 60.9761C37.3823 59.755 37.7657 58.5852 38.0661 57.4032C38.237 56.7316 38.5716 56.4752 39.2627 56.4044C42.0786 56.1162 42.2862 56.3653 41.3484 59.059C40.1419 62.5318 38.9575 66.0143 37.7413 69.4846C37.392 70.4761 34.4004 71.0476 33.6702 70.2954C33.3429 69.9584 33.5578 69.5872 33.7263 69.3479C35.5116 66.7811 34.7032 64.3048 33.5823 61.7771C32.9864 60.4486 32.5834 59.0346 32.0266 57.6865C31.67 56.8244 31.7433 56.4532 32.8081 56.3922C35.2063 56.2505 35.3406 56.314 36.0806 58.6658C36.3199 59.4375 36.359 60.2923 37.016 60.9761Z" fill="#2E3F5C"/>
<path d="M82.7895 83.2267V84.9875C82.7895 87.056 82.0276 87.6006 79.9957 87.122C79.2484 86.9461 79.2924 86.4601 79.2899 85.9375C79.2899 84.5894 79.3143 83.2511 79.2753 81.8957C79.2557 81.1973 79.5195 80.1642 78.357 80.2033C77.363 80.2375 77.5364 81.1509 77.534 81.8371C77.534 83.2414 77.4876 84.6481 77.534 86.0523C77.5804 87.4565 76.5889 87.1366 75.844 87.1098C75.0991 87.0829 73.9416 87.5567 74.0002 86.0254C74.0417 84.9729 74.0319 83.9154 74.0002 82.8506C73.9684 81.7858 74.2615 80.7992 73.0575 79.9713C72.2491 79.4169 72.6277 78.2056 73.1503 77.3875C73.712 76.501 74.6449 76.6719 75.3482 77.1017C76.0516 77.5316 76.5962 77.5902 77.3923 77.2336C80.4988 75.8758 82.5673 77.1946 82.7651 80.5843C82.8164 81.4586 82.7651 82.3402 82.7651 83.2194L82.7895 83.2267Z" fill="#2E3F5C"/>
<path d="M51.6274 60.2923C51.6678 59.7099 51.6629 59.1253 51.6128 58.5437C51.3539 56.8659 52.1012 56.4312 53.674 56.502C54.8023 56.5558 55.2418 56.8659 55.1661 58.0235C55.0831 59.3618 55.1295 60.7099 55.1661 62.0531C55.1808 62.6734 55.0978 63.494 56.016 63.4964C56.8805 63.4964 56.9196 62.7638 56.9123 62.0873C56.8976 60.6855 56.9758 59.2788 56.8903 57.8819C56.8 56.3726 57.7915 56.5484 58.7317 56.5387C59.6719 56.5289 60.534 56.4263 60.4095 57.8257C60.3496 58.8171 60.3496 59.8113 60.4095 60.8027C60.4412 61.8309 60.1653 62.8175 61.3326 63.6771C62.1727 64.3048 61.6745 65.5698 61.0884 66.3928C60.5389 67.145 59.6744 66.9594 59.037 66.5247C58.4411 66.1218 58.0601 66.0363 57.3446 66.366C54.348 67.7995 51.9718 66.4075 51.6934 63.0959C51.6128 62.1679 51.6934 61.2276 51.6934 60.2923H51.6274Z" fill="#2E3F5C"/>
<path d="M19.2931 58.3679C19.2931 59.9455 19.2931 61.5256 19.2931 63.1057C19.2931 64.8469 18.3846 66.0241 16.7826 66.5247C14.9558 67.0937 13.0607 67.2085 11.4244 65.963C10.494 65.2548 10.9165 64.2779 11.2462 63.3865C11.5612 62.5342 12.0521 62.5415 12.8873 62.7809C14.377 63.2107 15.2318 62.4878 15.3124 60.9077C15.371 59.799 15.2928 58.6829 15.3392 57.5742C15.3808 56.5704 15.4076 55.8646 13.9741 55.7792C12.753 55.7035 13.2829 54.4042 13.217 53.613C13.1608 52.9267 13.3415 52.304 14.25 52.3357C14.3086 52.3394 14.3673 52.3394 14.4259 52.3357C19.3249 51.9132 19.3249 51.9132 19.3249 56.7902V58.3679H19.2931Z" fill="#2E3F5C"/>
<path d="M48.5112 76.816C51.8326 76.7745 52.8265 77.7782 52.9316 80.7919C52.9706 81.9568 52.5188 83.1657 53.9841 84.0937C54.812 84.6212 54.4237 85.9888 53.7399 86.7996C53.1074 87.5665 52.1696 87.3784 51.5273 86.8509C50.8435 86.2916 50.4405 86.4919 49.7494 86.8216C48.3037 87.5103 46.7602 87.5542 45.4854 86.3942C44.9389 85.9402 44.5475 85.3273 44.3654 84.6406C44.1833 83.9539 44.2197 83.2275 44.4694 82.5624C45.0287 80.8651 46.4232 80.5818 47.952 80.4402C48.4111 80.3962 49.2732 80.7333 49.2512 80.0763C49.2195 79.1825 48.3134 79.4829 47.7053 79.4951C47.0972 79.5073 46.4842 80.0885 45.9616 79.3168C45.2729 78.318 45.5855 77.2971 46.7626 77.0138C47.3396 76.9036 47.9242 76.8375 48.5112 76.816Z" fill="#2E3F5C"/>
<path d="M30.4685 61.6721C30.4563 64.8787 28.7053 66.8324 25.8284 66.8495C22.8734 66.8691 21.0246 64.8445 21.0417 61.6086C21.0588 58.3728 22.9173 56.3873 25.8943 56.4312C28.7541 56.4752 30.4783 58.4485 30.4685 61.6721Z" fill="#2E3F5C"/>
<path d="M37.9073 83.7078C39.0454 85.0095 40.0833 84.6505 41.0382 84.3355C41.8685 84.0619 42.3496 84.1743 42.6183 85.0681C42.8625 85.8716 42.6916 86.3869 41.9027 86.7776C40.0345 87.6934 37.0379 87.3076 35.6605 85.9131C34.1366 84.3721 33.7874 81.4806 34.8644 79.3461C35.8608 77.3728 37.5654 76.5572 39.993 76.8868C42.0493 77.1677 43.2533 78.5695 43.1678 80.5941C43.0921 82.4916 42.0029 83.4636 39.7951 83.6053C39.2945 83.6321 38.7841 83.6565 37.9073 83.7078Z" fill="#2E3F5C"/>
<path d="M48.5455 52.2136C48.9904 52.2402 49.4327 52.299 49.8691 52.3894C50.5554 52.5677 51.3051 52.7851 50.9144 53.7888C50.6409 54.4873 50.6873 55.5301 49.388 55.1271C48.8337 54.9561 48.1669 54.8829 48.0131 55.7157C47.8348 56.6925 48.5821 56.5265 49.1267 56.546C49.9033 56.5729 49.918 57.1419 49.8936 57.6572C49.8667 58.297 50.172 59.2299 49.1096 59.2861C48.1572 59.335 48.1328 59.8674 48.1328 60.5609C48.1474 62.1947 48.0766 63.8334 48.1523 65.4624C48.2256 67.0278 47.1486 66.7201 46.2669 66.7298C45.3853 66.7396 44.4378 66.9545 44.5208 65.5088C44.6014 64.1118 44.5672 62.7076 44.5208 61.3082C44.4964 60.4706 44.8407 59.6158 43.5781 59.0443C42.9065 58.7391 42.8332 57.1639 43.7637 56.6632C44.4402 56.3018 44.4964 55.9697 44.5721 55.3957C44.953 52.9218 45.8713 52.155 48.5455 52.2136Z" fill="#2E3F5C"/>
<path d="M67.0156 59.5352C67.0156 61.5207 66.9497 63.5086 67.0351 65.4917C67.106 67.106 65.9899 66.7128 65.1425 66.7128C64.295 66.7128 63.2009 67.0791 63.2205 65.4917C63.2742 61.5207 63.2449 57.5497 63.2376 53.5788C63.2376 51.7496 64.6223 52.4529 65.5234 52.3259C66.4246 52.1989 67.0962 52.3259 67.04 53.5714C66.9497 55.5618 67.0156 57.5497 67.0156 59.5352Z" fill="#2E3F5C"/>
<path d="M70.8938 82.0764C70.8938 83.4196 70.8449 84.7628 70.9084 86.106C70.9524 87.0316 70.4737 87.3003 69.746 87.1049C68.8619 86.8607 67.3038 87.9035 67.1768 86.2574C66.9692 83.4099 67.1158 80.5354 67.1133 77.6732C67.1133 77.1677 67.3722 77.0114 67.8606 76.9235C70.3858 76.4643 70.8938 76.8697 70.8938 79.4462V82.0764Z" fill="#2E3F5C"/>
<path d="M69.0817 75.7854C67.675 76.0296 67.0644 75.656 67.0424 74.0881C67.0156 72.254 68.1952 72.5862 69.2233 72.5007C70.5348 72.3884 70.9328 72.9549 70.9548 74.303C70.9963 75.9344 70.188 75.9808 69.0817 75.7854Z" fill="#2E3F5C"/>
<path d="M90.0355 82.1595C89.6569 82.7505 90.5581 83.9374 89.2637 83.9398C88.2063 83.9398 88.1306 82.9239 88.1477 82.0862C88.1648 81.2485 88.3089 80.1764 89.2931 80.2277C90.5605 80.2937 89.6276 81.5392 90.0355 82.1595Z" fill="white"/>
<path d="M27.3206 82.118C27.5159 81.4806 26.9689 80.4549 28.0972 80.4744C29.2719 80.4939 29.1082 81.5319 29.1009 82.3085C29.1009 83.0411 29.1644 84.0351 28.0996 83.974C26.7589 83.8934 27.6551 82.6919 27.3206 82.118Z" fill="white"/>
<path d="M49.4271 83.3561C49.4051 83.9398 49.1951 84.333 48.6138 84.2768C48.0326 84.2207 47.8299 83.825 47.8983 83.3146C47.9667 82.8042 48.333 82.5502 48.8752 82.5649C49.4808 82.5795 49.4051 83.0338 49.4271 83.3561Z" fill="white"/>
<path d="M26.9567 61.6795C26.9249 62.4829 26.8248 63.3133 25.8406 63.3523C24.6976 63.3939 24.6341 62.4023 24.6195 61.6233C24.6048 60.8442 24.7245 59.821 25.821 59.8674C26.9176 59.9138 26.9371 60.8589 26.9567 61.6795Z" fill="white"/>
<path d="M38.8989 79.9029C39.314 79.9029 39.6779 80.0763 39.7463 80.5427C39.8318 81.1411 39.4093 81.3462 38.9135 81.3975C38.5057 81.4415 38.0539 81.4293 38.0539 80.8505C38.0466 80.7326 38.0628 80.6146 38.1014 80.503C38.14 80.3915 38.2003 80.2887 38.2789 80.2006C38.3575 80.1125 38.4527 80.0408 38.5591 79.9897C38.6655 79.9386 38.781 79.9091 38.8989 79.9029Z" fill="#F8F9FC"/>
<path d="M17.8179 26.3357C17.9255 26.3357 18.0188 26.3669 18.0981 26.4291C18.1829 26.4914 18.2395 26.5734 18.2678 26.6753L19.9656 32.193H18.6413L17.4444 27.8892C17.4218 27.793 17.3991 27.6968 17.3765 27.6006C17.3539 27.4987 17.3341 27.4025 17.3171 27.312H17.0879C17.0709 27.4025 17.0511 27.4987 17.0285 27.6006C17.0115 27.6968 16.9889 27.793 16.9606 27.8892L15.7636 32.193H14.4309L16.1372 26.6753C16.1654 26.5734 16.2192 26.4914 16.2984 26.4291C16.3833 26.3669 16.4795 26.3357 16.5871 26.3357H17.8179ZM18.7177 29.6718V30.648H15.6788V29.6718H18.7177ZM24.6195 26.3357V32.193H23.3207V26.3357H24.6195ZM26.3851 26.3357V27.3544H21.5635V26.3357H26.3851ZM29.3695 26.2509C29.8845 26.2509 30.3004 26.3046 30.6173 26.4121C30.9399 26.514 31.1748 26.6923 31.3219 26.9469C31.4747 27.1959 31.5511 27.544 31.5511 27.9911C31.5511 28.2627 31.5143 28.5032 31.4407 28.7126C31.3728 28.9163 31.2568 29.0804 31.0927 29.2049C30.9286 29.3294 30.705 29.4087 30.4221 29.4426V29.4851C30.524 29.5021 30.6286 29.5417 30.7362 29.6039C30.8494 29.6662 30.954 29.7595 31.0503 29.884C31.1465 30.0029 31.2172 30.1642 31.2625 30.3679L31.7718 32.193H30.4051L29.9552 30.4104C29.9043 30.2179 29.8279 30.0849 29.726 30.0114C29.6298 29.9378 29.494 29.901 29.3185 29.901C28.9337 29.901 28.6083 29.901 28.3423 29.901C28.082 29.8954 27.8613 29.8897 27.6802 29.884C27.5048 29.8784 27.3463 29.8727 27.2048 29.8671L27.2303 28.9248H29.344C29.5704 28.9248 29.7486 28.9022 29.8788 28.8569C30.0146 28.806 30.108 28.7183 30.1589 28.5938C30.2155 28.4693 30.2438 28.2966 30.2438 28.0759C30.2438 27.8496 30.2155 27.677 30.1589 27.5581C30.108 27.4336 30.0146 27.3487 29.8788 27.3035C29.7486 27.2525 29.5704 27.2271 29.344 27.2271C28.812 27.2271 28.3621 27.2299 27.9943 27.2356C27.6265 27.2412 27.3746 27.2497 27.2388 27.261L27.1115 26.3357C27.3492 26.3074 27.5727 26.2876 27.7821 26.2763C27.9915 26.265 28.2207 26.2593 28.4697 26.2593C28.7187 26.2537 29.0186 26.2509 29.3695 26.2509ZM28.3933 26.3357V32.193H27.1115V26.3357H28.3933ZM33.9064 26.3357V32.193H32.6161V26.3357H33.9064ZM36.2917 26.3103C36.6086 26.3103 36.9283 26.3131 37.2509 26.3188C37.5735 26.3188 37.8904 26.3244 38.2016 26.3357C38.5129 26.3471 38.8043 26.3669 39.076 26.3952L39.0166 27.3374H36.767C36.6256 27.3374 36.518 27.3742 36.4445 27.4478C36.3766 27.5213 36.3426 27.6289 36.3426 27.7703V30.7584C36.3426 30.8999 36.3766 31.0074 36.4445 31.081C36.518 31.1545 36.6256 31.1913 36.767 31.1913H39.0166L39.076 32.1336C38.8043 32.1562 38.5129 32.176 38.2016 32.193C37.8904 32.2043 37.5735 32.21 37.2509 32.21C36.9283 32.2156 36.6086 32.2185 36.2917 32.2185C35.9182 32.2185 35.6154 32.1109 35.3834 31.8959C35.157 31.6752 35.0438 31.3894 35.0438 31.0385V27.4902C35.0438 27.1337 35.157 26.8479 35.3834 26.6329C35.6154 26.4178 35.9182 26.3103 36.2917 26.3103ZM35.1966 28.6871H38.7025V29.6039H35.1966V28.6871ZM42.2943 26.2509C42.7583 26.2509 43.1488 26.3018 43.4657 26.4037C43.7883 26.4999 44.0458 26.6611 44.2382 26.8875C44.4363 27.1139 44.5806 27.4223 44.6711 27.8128C44.7617 28.1976 44.807 28.6815 44.807 29.2644C44.807 29.8473 44.7617 30.334 44.6711 30.7244C44.5806 31.1093 44.4363 31.4149 44.2382 31.6412C44.0458 31.8676 43.7883 32.0317 43.4657 32.1336C43.1488 32.2298 42.7583 32.2779 42.2943 32.2779C41.8472 32.2779 41.4369 32.2694 41.0634 32.2524C40.6899 32.2354 40.3334 32.2156 39.9938 32.193L40.5371 31.2338C40.7522 31.2451 41.0068 31.2564 41.3011 31.2677C41.601 31.2734 41.9321 31.2762 42.2943 31.2762C42.5829 31.2762 42.8093 31.2196 42.9734 31.1064C43.1432 30.9876 43.262 30.781 43.3299 30.4868C43.4035 30.1925 43.4403 29.785 43.4403 29.2644C43.4403 28.7437 43.4035 28.3363 43.3299 28.042C43.262 27.7477 43.1432 27.5411 42.9734 27.4223C42.8093 27.3035 42.5829 27.244 42.2943 27.244C41.9491 27.244 41.6407 27.2469 41.369 27.2525C41.0974 27.2525 40.8314 27.2525 40.5711 27.2525L39.9938 26.3357C40.3334 26.3131 40.6871 26.2933 41.0549 26.2763C41.4284 26.2593 41.8416 26.2509 42.2943 26.2509ZM41.2926 26.3357V32.193H39.9938V26.3357H41.2926ZM50.2228 26.3357C50.3303 26.3357 50.4237 26.3669 50.5029 26.4291C50.5878 26.4914 50.6444 26.5734 50.6727 26.6753L52.3705 32.193H51.0462L49.8493 27.8892C49.8267 27.793 49.804 27.6968 49.7814 27.6006C49.7587 27.4987 49.7389 27.4025 49.722 27.312H49.4928C49.4758 27.4025 49.456 27.4987 49.4333 27.6006C49.4164 27.6968 49.3937 27.793 49.3654 27.8892L48.1685 32.193H46.8358L48.542 26.6753C48.5703 26.5734 48.6241 26.4914 48.7033 26.4291C48.7882 26.3669 48.8844 26.3357 48.9919 26.3357H50.2228ZM51.1226 29.6718V30.648H48.0836V29.6718H51.1226ZM57.9248 26.3357V31.7261C57.9248 32.0374 57.7692 32.193 57.4579 32.193H56.7449C56.6034 32.193 56.4959 32.1619 56.4223 32.0996C56.3487 32.0317 56.2808 31.9327 56.2186 31.8025L54.5972 28.7296C54.5293 28.5994 54.4614 28.4551 54.3935 28.2966C54.3312 28.1382 54.2775 27.9854 54.2322 27.8383H54.1388C54.1558 27.9911 54.17 28.1467 54.1813 28.3051C54.1926 28.4579 54.1983 28.6107 54.1983 28.7635V32.193H52.9674V26.8026C52.9674 26.4914 53.1258 26.3357 53.4428 26.3357H54.1473C54.2831 26.3357 54.385 26.3697 54.4529 26.4376C54.5265 26.4999 54.5972 26.5961 54.6651 26.7262L56.2356 29.7058C56.3035 29.8359 56.3742 29.9803 56.4478 30.1387C56.5213 30.2972 56.5921 30.4613 56.66 30.6311H56.7619C56.7449 30.4613 56.7307 30.2972 56.7194 30.1387C56.7138 29.9746 56.7109 29.8133 56.7109 29.6549L56.7024 26.3357H57.9248ZM61.394 26.2509C61.8581 26.2509 62.2485 26.3018 62.5655 26.4037C62.888 26.4999 63.1455 26.6611 63.3379 26.8875C63.536 27.1139 63.6803 27.4223 63.7709 27.8128C63.8614 28.1976 63.9067 28.6815 63.9067 29.2644C63.9067 29.8473 63.8614 30.334 63.7709 30.7244C63.6803 31.1093 63.536 31.4149 63.3379 31.6412C63.1455 31.8676 62.888 32.0317 62.5655 32.1336C62.2485 32.2298 61.8581 32.2779 61.394 32.2779C60.9469 32.2779 60.5366 32.2694 60.1631 32.2524C59.7896 32.2354 59.4331 32.2156 59.0936 32.193L59.6368 31.2338C59.8519 31.2451 60.1065 31.2564 60.4008 31.2677C60.7008 31.2734 61.0318 31.2762 61.394 31.2762C61.6826 31.2762 61.909 31.2196 62.0731 31.1064C62.2429 30.9876 62.3617 30.781 62.4296 30.4868C62.5032 30.1925 62.54 29.785 62.54 29.2644C62.54 28.7437 62.5032 28.3363 62.4296 28.042C62.3617 27.7477 62.2429 27.5411 62.0731 27.4223C61.909 27.3035 61.6826 27.244 61.394 27.244C61.0488 27.244 60.7404 27.2469 60.4687 27.2525C60.1971 27.2525 59.9311 27.2525 59.6708 27.2525L59.0936 26.3357C59.4331 26.3131 59.7868 26.2933 60.1546 26.2763C60.5282 26.2593 60.9413 26.2509 61.394 26.2509ZM60.3923 26.3357V32.193H59.0936V26.3357H60.3923ZM69.1441 26.3357V32.193H67.8453V26.3357H69.1441ZM70.9097 26.3357V27.3544H66.0881V26.3357H70.9097ZM73.894 26.2509C74.409 26.2509 74.825 26.3046 75.1419 26.4121C75.4645 26.514 75.6993 26.6923 75.8465 26.9469C75.9993 27.1959 76.0757 27.544 76.0757 27.9911C76.0757 28.2627 76.0389 28.5032 75.9653 28.7126C75.8974 28.9163 75.7814 29.0804 75.6173 29.2049C75.4532 29.3294 75.2296 29.4087 74.9467 29.4426V29.4851C75.0485 29.5021 75.1532 29.5417 75.2607 29.6039C75.3739 29.6662 75.4786 29.7595 75.5748 29.884C75.671 30.0029 75.7418 30.1642 75.787 30.3679L76.2964 32.193H74.9297L74.4798 30.4104C74.4288 30.2179 74.3524 30.0849 74.2506 30.0114C74.1544 29.9378 74.0186 29.901 73.8431 29.901C73.4583 29.901 73.1329 29.901 72.8669 29.901C72.6066 29.8954 72.3859 29.8897 72.2048 29.884C72.0293 29.8784 71.8709 29.8727 71.7294 29.8671L71.7549 28.9248H73.8686C74.0949 28.9248 74.2732 28.9022 74.4034 28.8569C74.5392 28.806 74.6326 28.7183 74.6835 28.5938C74.7401 28.4693 74.7684 28.2966 74.7684 28.0759C74.7684 27.8496 74.7401 27.677 74.6835 27.5581C74.6326 27.4336 74.5392 27.3487 74.4034 27.3035C74.2732 27.2525 74.0949 27.2271 73.8686 27.2271C73.3366 27.2271 72.8867 27.2299 72.5189 27.2356C72.151 27.2412 71.8992 27.2497 71.7634 27.261L71.636 26.3357C71.8737 26.3074 72.0973 26.2876 72.3066 26.2763C72.516 26.265 72.7452 26.2593 72.9942 26.2593C73.2432 26.2537 73.5432 26.2509 73.894 26.2509ZM72.9178 26.3357V32.193H71.636V26.3357H72.9178ZM81.818 26.3357V29.8586C81.818 30.4528 81.7444 30.931 81.5973 31.2932C81.4501 31.6497 81.2068 31.91 80.8672 32.0742C80.5333 32.2326 80.0863 32.3118 79.526 32.3118C78.9318 32.3118 78.4564 32.2326 78.0999 32.0742C77.7434 31.91 77.4859 31.6497 77.3274 31.2932C77.169 30.931 77.0897 30.4528 77.0897 29.8586V26.3357H78.3885V29.8586C78.3885 30.2264 78.4196 30.515 78.4819 30.7244C78.5498 30.9282 78.663 31.0725 78.8214 31.1574C78.9799 31.2423 79.1921 31.2847 79.4581 31.2847C79.7241 31.2847 79.9335 31.2423 80.0863 31.1574C80.2447 31.0725 80.3551 30.9282 80.4173 30.7244C80.4852 30.515 80.5192 30.2264 80.5192 29.8586V26.3357H81.818ZM84.157 26.3103C84.4739 26.3103 84.7937 26.3131 85.1163 26.3188C85.4388 26.3188 85.7558 26.3244 86.067 26.3357C86.3783 26.3471 86.6697 26.3669 86.9414 26.3952L86.8819 27.3374H84.6324C84.4909 27.3374 84.3834 27.3742 84.3098 27.4478C84.2419 27.5213 84.208 27.6289 84.208 27.7703V30.7584C84.208 30.8999 84.2419 31.0074 84.3098 31.081C84.3834 31.1545 84.4909 31.1913 84.6324 31.1913H86.8819L86.9414 32.1336C86.6697 32.1562 86.3783 32.176 86.067 32.193C85.7558 32.2043 85.4388 32.21 85.1163 32.21C84.7937 32.2156 84.4739 32.2185 84.157 32.2185C83.7835 32.2185 83.4808 32.1109 83.2487 31.8959C83.0224 31.6752 82.9092 31.3894 82.9092 31.0385V27.4902C82.9092 27.1337 83.0224 26.8479 83.2487 26.6329C83.4808 26.4178 83.7835 26.3103 84.157 26.3103ZM83.062 28.6871H86.5678V29.6039H83.062V28.6871ZM95.6928 26.3357C95.9984 26.3357 96.1569 26.4942 96.1682 26.8111L96.3889 32.193H95.192L94.9967 27.3374H94.8439L93.9017 30.9876C93.8507 31.2592 93.681 31.395 93.3923 31.395H92.5774C92.2888 31.395 92.1134 31.2592 92.0511 30.9876L91.1089 27.3374H90.9646L90.7863 32.193H89.5809L89.8016 26.8111C89.8129 26.4942 89.9742 26.3357 90.2855 26.3357H91.4994C91.7767 26.3357 91.9464 26.4744 92.0087 26.7517L92.7642 29.6973C92.7981 29.8331 92.8264 29.9718 92.8491 30.1132C92.8717 30.2491 92.8972 30.3877 92.9255 30.5292H93.0358C93.0641 30.3877 93.0896 30.2491 93.1122 30.1132C93.1405 29.9718 93.1688 29.8303 93.1971 29.6888L93.9441 26.7517C94.0007 26.4744 94.1705 26.3357 94.4534 26.3357H95.6928ZM98.6642 26.3103C98.9811 26.3103 99.3009 26.3131 99.6234 26.3188C99.946 26.3188 100.263 26.3244 100.574 26.3357C100.885 26.3471 101.177 26.3669 101.449 26.3952L101.389 27.3374H99.1396C98.9981 27.3374 98.8906 27.3742 98.817 27.4478C98.7491 27.5213 98.7151 27.6289 98.7151 27.7703V30.7584C98.7151 30.8999 98.7491 31.0074 98.817 31.081C98.8906 31.1545 98.9981 31.1913 99.1396 31.1913H101.389L101.449 32.1336C101.177 32.1562 100.885 32.176 100.574 32.193C100.263 32.2043 99.946 32.21 99.6234 32.21C99.3009 32.2156 98.9811 32.2185 98.6642 32.2185C98.2907 32.2185 97.9879 32.1109 97.7559 31.8959C97.5295 31.6752 97.4164 31.3894 97.4164 31.0385V27.4902C97.4164 27.1337 97.5295 26.8479 97.7559 26.6329C97.9879 26.4178 98.2907 26.3103 98.6642 26.3103ZM97.5691 28.6871H101.075V29.6039H97.5691V28.6871ZM104.981 26.3357V32.193H103.682V26.3357H104.981ZM106.747 26.3357V27.3544H101.925V26.3357H106.747ZM108.78 26.3357V32.193H107.481V26.3357H108.78ZM110.953 28.5853V29.5615H108.712V28.5853H110.953ZM112.159 26.3357V32.193H110.86V26.3357H112.159ZM115.676 26.2169C116.141 26.2169 116.534 26.2678 116.856 26.3697C117.179 26.4659 117.436 26.63 117.629 26.862C117.827 27.0884 117.971 27.3997 118.062 27.7958C118.152 28.1863 118.198 28.6758 118.198 29.2644C118.198 29.8529 118.152 30.3453 118.062 30.7414C117.971 31.1319 117.827 31.4432 117.629 31.6752C117.436 31.9015 117.179 32.0657 116.856 32.1675C116.534 32.2637 116.141 32.3118 115.676 32.3118C115.212 32.3118 114.819 32.2637 114.497 32.1675C114.174 32.0657 113.914 31.9015 113.716 31.6752C113.518 31.4432 113.373 31.1319 113.283 30.7414C113.192 30.3453 113.147 29.8529 113.147 29.2644C113.147 28.6758 113.192 28.1863 113.283 27.7958C113.373 27.3997 113.518 27.0884 113.716 26.862C113.914 26.63 114.174 26.4659 114.497 26.3697C114.819 26.2678 115.212 26.2169 115.676 26.2169ZM115.676 27.244C115.377 27.244 115.142 27.3035 114.972 27.4223C114.808 27.5411 114.689 27.7477 114.615 28.042C114.547 28.3306 114.514 28.7381 114.514 29.2644C114.514 29.785 114.547 30.1925 114.615 30.4868C114.689 30.781 114.808 30.9876 114.972 31.1064C115.142 31.2253 115.377 31.2847 115.676 31.2847C115.971 31.2847 116.2 31.2253 116.364 31.1064C116.534 30.9876 116.653 30.781 116.721 30.4868C116.794 30.1925 116.831 29.785 116.831 29.2644C116.831 28.7381 116.794 28.3306 116.721 28.042C116.653 27.7477 116.534 27.5411 116.364 27.4223C116.2 27.3035 115.971 27.244 115.676 27.244ZM121.487 26.2509C121.951 26.2509 122.341 26.3018 122.658 26.4037C122.981 26.4999 123.238 26.6611 123.431 26.8875C123.629 27.1139 123.773 27.4223 123.864 27.8128C123.954 28.1976 124 28.6815 124 29.2644C124 29.8473 123.954 30.334 123.864 30.7244C123.773 31.1093 123.629 31.4149 123.431 31.6412C123.238 31.8676 122.981 32.0317 122.658 32.1336C122.341 32.2298 121.951 32.2779 121.487 32.2779C121.04 32.2779 120.629 32.2694 120.256 32.2524C119.882 32.2354 119.526 32.2156 119.186 32.193L119.73 31.2338C119.945 31.2451 120.199 31.2564 120.494 31.2677C120.794 31.2734 121.125 31.2762 121.487 31.2762C121.775 31.2762 122.002 31.2196 122.166 31.1064C122.336 30.9876 122.455 30.781 122.522 30.4868C122.596 30.1925 122.633 29.785 122.633 29.2644C122.633 28.7437 122.596 28.3363 122.522 28.042C122.455 27.7477 122.336 27.5411 122.166 27.4223C122.002 27.3035 121.775 27.244 121.487 27.244C121.142 27.244 120.833 27.2469 120.562 27.2525C120.29 27.2525 120.024 27.2525 119.764 27.2525L119.186 26.3357C119.526 26.3131 119.88 26.2933 120.247 26.2763C120.621 26.2593 121.034 26.2509 121.487 26.2509ZM120.485 26.3357V32.193H119.186V26.3357H120.485Z" fill="#5D6678"/>
</svg>
